<?xml version="1.0" encoding="UTF-8"?>
<svg width="600" height="160" version="1.1" xmlns="http://www.w3.org/2000/svg">
 <path d="m542.53 18.93c-0.31632-0.58238-1.0929-1.0497-1.7256-1.0497h-6.8304c-0.6327 0-1.2438 0.53205-1.3589 1.1863l-1.6033 8.937c-0.11504 0.65429 0.036 1.6681 0.33789 2.2504l21.613 41.442c0.30924 0.58238 1.0713 1.0641 1.7112 1.0641h5.6081c0.63269 0 1.2367-0.53923 1.3445-1.1935l2.0419-12.352c0.10784-0.65428-0.0576-1.6609-0.37387-2.2432l-20.764-38.042m21.124 68.412c-0.48164 0.43859-0.9634 1.3301-1.0712 1.9844l-8.5919 50.149c-0.10784 0.65428 0.12224 1.6177 0.51045 2.1426l4.6662 6.2768c0.38821 0.52486 1.1216 0.63271 1.632 0.23728l7.6214-5.9604c0.51045-0.39545 1.0138-1.2582 1.1216-1.9125l8.5919-51.077c0.11504-0.65427-0.12225-1.6177-0.51045-2.1426l-4.7957-6.4278c-0.39548-0.51767-1.1001-0.58957-1.5818-0.15818l-7.5926 6.8879m26.315-67.844c0.10783-0.65427-0.12225-1.6177-0.52486-2.1282l-4.7597-6.1042c-0.4026-0.51047-1.136-0.58957-1.6249-0.16536l-7.082 6.1474c-0.4889 0.4242-0.97781 1.3086-1.0928 1.9628l-8.6494 51.005c-0.11504 0.65427 0.11504 1.6177 0.51045 2.1354l4.58 6.0107c0.40261 0.51768 1.1503 0.63271 1.6681 0.25884l6.967-5.0976c0.52485-0.38106 1.0353-1.2295 1.1503-1.8838l8.8579-52.141m-87.717 67.635c-0.48172 0.43139-0.96345 1.3229-1.0713 1.9772l-8.5919 50.365c-0.10786 0.65428 0.11504 1.6177 0.51047 2.1426l4.6662 6.2768c0.38826 0.52486 1.1216 0.63271 1.6321 0.23728l7.6212-5.9604c0.50329-0.39545 1.0138-1.2582 1.1216-1.9125l8.5991-51.285c0.10786-0.66147-0.12223-1.6249-0.51048-2.1498l-4.8028-6.4206c-0.39543-0.52486-1.1001-0.59676-1.5818-0.16537l-7.5925 6.8951m26.315-67.635c0.10786-0.65427-0.12941-1.6177-0.52485-2.1282l-4.7669-6.1042c-0.39543-0.51047-1.1288-0.58957-1.6177-0.16536l-7.082 6.1474c-0.48891 0.4242-0.97783 1.3086-1.0857 1.9628l-8.6566 50.789c-0.11505 0.65428 0.12223 1.6177 0.51047 2.1354l4.58 6.0179c0.40262 0.51768 1.1432 0.63271 1.668 0.25165l6.967-5.0976c0.51765-0.38107 1.0354-1.2295 1.1504-1.8838l8.8579-51.925m-187.79 73.495c-0.41705-0.50329-1.2726-0.91311-1.9054-0.91311h-9.2605c-0.6327 0-1.2295 0.53923-1.3302 1.1935l-0.86278 5.9388c-0.10067 0.65429 0.15097 1.6105 0.56084 2.121l37.272 46.835c0.40262 0.51048 1.2582 0.9275 1.8837 0.9275h8.0455c0.63989 0 1.2654-0.53206 1.402-1.1792l1.74-8.3115c0.1366-0.65427-0.0935-1.5962-0.51047-2.0994l-37.035-44.513m36.266-11.31c0.4673-0.44577 0.52485-1.2295 0.12942-1.7471l-4.8388-6.2408c-0.39544-0.51048-1.2438-0.93469-1.8766-0.93469h-36.244c-0.6327 0-1.5602 0.33074-2.0635 0.73337l-6.6938 5.3636c-0.50329 0.40264-0.61114 1.1792-0.23727 1.7184l4.9395 7.2186c0.37387 0.53925 1.1935 0.97783 1.8262 0.97783h36.445c0.6327 0 1.5315-0.36668 2.006-0.80526l6.6075-6.284m4.5512-51.515c0.12223-0.65429 0.62552-1.5315 1.1144-1.9485l7.7435-6.5931c0.4961-0.41702 1.1791-0.30198 1.5242 0.25165l4.6231 7.3696c0.34512 0.5608 0.53922 1.553 0.42423 2.2073l-6.2768 35.842c-0.11504 0.65427-0.59677 1.553-1.0641 1.9988l-7.8226 7.3552c-0.47449 0.44578-1.1863 0.38826-1.5889-0.12942l-5.033-6.4565c-0.40261-0.51767-0.6327-1.4739-0.51047-2.121l6.8663-37.776m-53.809-19.549c-0.6327 0-0.81967 0.41702-0.4098 0.92031l11.784 14.595c0.40262 0.51048 1.2582 0.92749 1.8909 0.92749h34.95c0.6327 0 1.553-0.34511 2.0491-0.75494l9.1527-7.6788c0.4961-0.40982 0.56083-1.1648 0.15103-1.6681l-4.3787-5.3133c-0.41699-0.5033-1.2726-0.92031-1.9053-0.92031l-53.284-0.10785m-3.3433 4.3355c-0.4098-0.50328-0.84122-0.38106-0.95627 0.27322l-9.3828 53.14c-0.11504 0.65428 0.10786 1.6177 0.49611 2.1426l4.6734 6.2768c0.38831 0.52486 1.1216 0.63271 1.6322 0.23007l7.6212-5.9532c0.50329-0.40263 1.0138-1.2654 1.1216-1.9197l6.5572-38.257c0.11504-0.65429-0.12942-1.6105-0.53929-2.1138l-11.223-13.819m-13.208 72.388c-0.48172 0.43859-0.95627 1.3301-1.0713 1.9844l-8.3906 50.149c-0.10786 0.65428 0.12217 1.6177 0.51047 2.1426l4.6662 6.2768c0.38825 0.52486 1.1288 0.63271 1.6321 0.23728l7.6213-5.9604c0.51048-0.39545 1.0138-1.2582 1.1216-1.9125l8.3978-51.077c0.10786-0.65427-0.12223-1.6177-0.51766-2.1426l-4.7956-6.4278c-0.39549-0.51767-1.1072-0.58957-1.5818-0.15818l-7.5925 6.8879m155.19 1.3445c0.11504-0.65428 0.60396-1.5386 1.1001-1.9556l7.7435-6.5931c0.48892-0.41701 1.1791-0.30197 1.5314 0.25165l4.6159 7.3768c0.34513 0.55362 0.53928 1.5458 0.43142 2.2001l-6.2984 37.977c-0.10785 0.66147-0.58958 1.553-1.0641 1.9844l-7.5997 6.9526c-0.47454 0.44578-1.1935 0.37388-1.5962-0.1366l-5.0329-6.4637c-0.39544-0.51049-0.6399-1.4667-0.52485-2.121l6.6937-39.472m-61.064 0.20851c0.10786-0.65428 0.60396-1.5314 1.1001-1.9485l7.7435-6.5931c0.48892-0.41701 1.1791-0.30916 1.5242 0.25165l4.6231 7.3768c0.34512 0.55363 0.53927 1.5458 0.43142 2.2001l-6.4996 38.825c-0.10786 0.66147-0.61833 1.5171-1.1289 1.9125l-7.2689 5.6153c-0.51047 0.39544-1.2295 0.26602-1.5962-0.27322l-4.961-7.4128c-0.3595-0.55363-0.56796-1.5315-0.46017-2.1857l6.4925-37.768m71.805-58.727c0.11505-0.65429 0.61834-1.5315 1.1072-1.9485l7.7435-6.5931c0.4961-0.41702 1.1864-0.30198 1.5315 0.25165l4.6159 7.3696c0.34513 0.5608 0.53923 1.553 0.42419 2.2073l-6.6794 37.553c-0.11505 0.65427-0.6039 1.5458-1.0784 1.9844l-7.5998 6.9526c-0.47448 0.43859-1.1935 0.37388-1.5961-0.1438l-5.033-6.4565c-0.40262-0.51048-0.6327-1.4667-0.51047-2.121l7.0748-39.055m-61.265 7e-3c0.11504-0.66148 0.61114-1.5386 1.1072-1.9556l7.7435-6.5931c0.48891-0.41702 1.1791-0.30198 1.5314 0.25165l4.6159 7.3696c0.34513 0.5608 0.53928 1.553 0.42424 2.2073l-6.6866 37.977c-0.11504 0.65428-0.59677 1.553-1.0713 1.9844l-7.5997 6.9526c-0.48172 0.43859-1.1935 0.37388-1.5962-0.1366l-5.0329-6.4565c-0.40262-0.51767-0.63271-1.4739-0.51766-2.1282l7.082-39.472m41.306 103.3c-0.40262-0.5033-1.2582-0.9203-1.8909-0.9203h-35.842c-0.6327 0-1.5674 0.32354-2.085 0.70461l-9.2893 7.0604c-0.51048 0.38825-0.61833 1.136-0.23009 1.668l4.4146 6.1186c0.38112 0.53204 1.2151 0.96344 1.8478 0.96344h37.466c0.6327 0 1.553-0.33792 2.0492-0.75494l8.3474-7.0317c0.48892-0.40982 0.56079-1.172 0.15098-1.6752l-4.9395-6.133m20.168-122.13c-0.40268-0.5105-1.251-0.9347-1.8838-0.9347h-34.217c-0.6327 0-1.5674 0.31635-2.0851 0.70461l-9.0808 6.8448c-0.51767 0.38826-0.66146 1.1648-0.32357 1.7256l3.7747 6.2192c0.33794 0.56081 1.1288 1.021 1.7615 1.021h36.654c0.6327 0 1.5459-0.3523 2.0348-0.7765l7.9664-6.9886c0.48891-0.4314 0.56078-1.2007 0.15816-1.7112l-4.7597-6.1042m-288.76 50.027c0.20853 0.63271 0.31638 1.6824 0.24446 2.3439l-1.3517 11.906c-0.079 0.66147-0.65426 1.2007-1.287 1.2007h-8.4553c-0.6327 0-1.3086-0.51767-1.5027-1.1504l-15.926-51.724c-0.19415-0.63272-0.27326-1.6896-0.17259-2.3439l1.4596-9.5697c0.10067-0.66147 0.70463-1.2007 1.3373-1.2007h7.8441c0.62552 0 1.3157 0.51768 1.5242 1.1504l16.285 49.387m0.45299 35.18c-0.20853-0.63271-0.3092-1.6896-0.23727-2.3511l1.3517-11.906c0.0719-0.66147 0.65426-1.2007 1.287-1.2007h8.858c0.6327 0 1.3013 0.52486 1.4883 1.1576l15.753 53.212c0.18696 0.63271 0.25889 1.6896 0.15822 2.3511l-1.4596 9.5625c-0.10067 0.66147-0.70463 1.2007-1.3373 1.2007h-7.8441c-0.62552 0-1.3158-0.51767-1.517-1.1504l-16.501-50.876m3.6165-32.261c0.0791-0.66147 0.42417-1.6609 0.7693-2.2145l31.463-50.013c0.34507-0.56081 1.1504-1.0138 1.7831-1.0138h9.0592c0.6327 0 1.0641 0.53923 0.96346 1.1935l-1.855 11.705c-0.10067 0.66146-0.47454 1.6537-0.81967 2.2073l-31.132 49.869c-0.34507 0.56081-1.1432 1.0138-1.7759 1.0138h-8.7213c-0.63988 0-1.0929-0.53924-1.0209-1.2079l1.287-11.54m-7.8657 30.766c-0.0648 0.66146-0.39543 1.6537-0.74056 2.2145l-31.405 50.502c-0.34513 0.56081-1.1504 1.0138-1.7759 1.0138h-9.0664c-0.63276 0-1.0641-0.53205-0.95627-1.1935l1.855-11.705c0.10067-0.65429 0.46736-1.6465 0.81243-2.2073l31.614-51.357c0.34513-0.56081 1.1432-1.0138 1.7759-1.0138h8.0455c0.6327 0 1.1001 0.53923 1.0353 1.2079l-1.1935 12.539m-147.09-5.8526c-0.6327 0-1.4596-0.4242-1.8478-0.95625l-4.5512-6.2624c-0.38106-0.53205-0.3092-1.3157 0.17254-1.7543l7.9951-7.2402c0.48173-0.43858 1.3877-0.79089 2.0204-0.79089h36.453c0.62551 0 1.4524 0.43859 1.8191 0.97783l4.3355 6.2983c0.36669 0.53924 0.28039 1.3301-0.20134 1.7687l-7.7219 6.967c-0.48173 0.43139-1.3876 0.79088-2.0203 0.79088l-36.453 0.20132m41.191 3.0413c-0.47454 0.44577-0.94908 1.3445-1.0569 1.9988l-7.5781 45.023c-0.10785 0.65428 0.09349 1.6393 0.45299 2.1857l4.3714 6.6291c0.3595 0.54643 1.0569 0.65428 1.5459 0.23007l7.8873-6.7297c0.48891-0.417 0.98502-1.3014 1.0929-1.9556l7.7795-45.735c0.11504-0.65427-0.11504-1.6249-0.4961-2.157l-4.8244-6.6219c-0.38105-0.52486-1.0857-0.58957-1.553-0.1438l-7.6213 7.2762m25.301-59.935c0.11504-0.65428-0.11504-1.6033-0.51047-2.121l-4.7669-6.1042c-0.40262-0.51048-1.1432-0.60395-1.6465-0.2085l-6.816 5.378c-0.51047 0.40263-1.0209 1.2654-1.136 1.9197l-6.6003 35.849c-0.12223 0.65428 0.10067 1.6177 0.48173 2.1498l4.8244 6.6219c0.38106 0.52486 1.1072 0.62552 1.6034 0.21569l6.8448-5.6297c0.4961-0.40982 0.99945-1.2798 1.1216-1.9341l6.6004-36.136m-85.754 59.726c-0.47454 0.44577-0.94908 1.3373-1.0569 1.9988l-7.384 45.232c-0.10786 0.65428 0.07911 1.6609 0.4098 2.2217l4.4721 7.6213c0.33076 0.56799 0.98501 0.66146 1.4452 0.2085l7.7867-7.6716c0.46011-0.45297 0.92747-1.3661 1.0353-2.0204l7.5853-45.526c0.10785-0.65428-0.10786-1.6321-0.47455-2.1713l-4.6734-6.7944c-0.36668-0.53924-1.0569-0.61833-1.5315-0.17975l-7.6141 7.082m25.301-60.79c0.11504-0.65429-0.11504-1.6105-0.51766-2.121l-4.7597-6.1042c-0.40262-0.51768-1.1432-0.61114-1.6537-0.2085l-6.816 5.378c-0.50329 0.40262-1.0138 1.2654-1.1288 1.9197l-6.6075 36.913c-0.11504 0.65428 0.10067 1.6177 0.48892 2.1498l4.8172 6.6219c0.38825 0.52486 1.1072 0.62552 1.6105 0.21569l6.8376-5.6297c0.50329-0.40982 1.0066-1.2798 1.1216-1.9341l6.6075-37.2m46.655-19.902c-0.40267-0.51049-1.2438-0.93469-1.8766-0.93469h-34.217c-0.6327 0-1.5602 0.33793-2.0635 0.74055l-9.3396 7.6285c-0.4961 0.40982-0.59677 1.1791-0.2229 1.7184l3.8394 5.4571c0.37387 0.53205 1.2007 0.97063 1.8334 0.97063h36.654c0.6327 0 1.5459-0.3523 2.0275-0.7765l7.9736-6.9886c0.48892-0.43139 0.5536-1.2007 0.15098-1.7112l-4.7597-6.1042m168.52 75.58c-0.47454 0.43858-0.95627 1.3229-1.0713 1.9772l-8.5919 50.581c-0.10785 0.65428 0.12223 1.6177 0.51048 2.1426l4.6663 6.2768c0.38824 0.52486 1.1216 0.63271 1.6321 0.23728l7.6212-5.9604c0.51048-0.39545 1.0138-1.2582 1.1216-1.9125l8.5991-51.501c0.10786-0.65428-0.12223-1.6177-0.51766-2.1426l-4.7956-6.4278c-0.3955-0.52486-1.1001-0.59675-1.5818-0.15817l-7.5925 6.8879m10.152-55.441c-0.63271 0-1.2367 0.53206-1.3445 1.1935l-6.0323 37.114c-0.10786 0.66147 0.12941 1.6177 0.52484 2.1426l4.58 6.0107c0.39543 0.51767 1.1432 0.63271 1.6608 0.25165l6.9742-5.0976c0.51766-0.37387 1.0281-1.2223 1.136-1.8838l6.2408-38.509c0.10786-0.65428-0.32357-1.1935-0.95627-1.1935l-12.784-0.0288m40.831-20.139c-0.40262-0.51048-1.2438-0.93468-1.8766-0.93468h-58.763c-0.63989 0-1.5387 0.36668-2.006 0.81244l-7.8298 7.4847c-0.46736 0.44577-0.50329 1.2151-0.0791 1.7112l4.8747 5.6153c0.42424 0.48892 1.2942 0.89155 1.9269 0.89155h58.964c0.6327 0 1.5386-0.35949 2.0132-0.80528l7.4056-6.931c0.47449-0.44578 0.53204-1.2295 0.12942-1.74l-4.7597-6.1042m-190.63 75.58c-0.47455 0.43858-0.96346 1.3229-1.0641 1.9772l-8.3978 50.581c-0.10786 0.65428 0.12223 1.6177 0.51047 2.1426l4.6663 6.2768c0.38824 0.52486 1.1288 0.63271 1.6321 0.23728l7.6213-5.9604c0.51047-0.39545 1.0138-1.2582 1.1216-1.9125l8.3978-51.501c0.10785-0.65428-0.12223-1.6177-0.51766-2.1426l-4.7957-6.4278c-0.39543-0.52486-1.1072-0.59675-1.5818-0.15817l-7.5925 6.8879m26.516-67.42c0.11504-0.65427-0.12223-1.6177-0.52491-2.1282l-4.7597-6.1042c-0.40262-0.51047-1.1288-0.58957-1.6177-0.16536l-7.0892 6.1474c-0.48891 0.4242-0.97783 1.3086-1.0857 1.9628l-8.6566 50.574c-0.11504 0.66147 0.12223 1.6177 0.51766 2.1426l4.58 6.0107c0.39543 0.51767 1.1432 0.63271 1.6608 0.25165l6.967-5.0976c0.52484-0.37387 1.0425-1.2223 1.1504-1.8838l8.858-51.71" fill="#d90021"/>
</svg>
