<svg fill="none" height="142" viewBox="0 0 600 142" width="600" xmlns="http://www.w3.org/2000/svg" xmlns:xlink="http://www.w3.org/1999/xlink"><clipPath id="a"><path d="m0 0h600v141.49h-600z"/></clipPath><g clip-path="url(#a)"><g fill="#111c4e"><path d="m192.49 111.344 20.302-72.594h11.989l20.407 72.594h-12.938l-3.792-15.0419h-19.458l-3.687 15.0419h-12.834zm19.26-25.5732h14.104l-6.948-28.6146z"/><path d="m298.635 79.7812 16.198-41.0312h11.99v72.594h-12.198v-42.6044l-11.885 28.6146h-8.105l-11.989-28.3021v42.2919h-12.208v-72.594h11.885l16.302 41.0312z"/><path d="m395.094 38.75v10.625h-16.302v61.969h-12.209v-61.969h-16.302v-10.625z"/><path d="m457.677 38.75v10.625h-24.719v19.1458h22.094v10.5209h-22.094v21.7813h24.719v10.521h-36.927v-72.594z"/><path d="m516.271 61.2611c-1.156-8.8334-4.313-12.8334-10.104-12.8334-7.157 0-10.625 6.3125-10.625 21.9896v9.2604c0 15.4688 3.468 21.9893 10.625 21.9893 6 0 8.833-3.9997 10.104-12.833h11.573c-2.104 16.302-9.573 23.458-21.677 23.458-13.469 0-22.823-9.781-22.823-32.6143v-9.2604c0-22.8333 9.364-32.6146 22.823-32.6146 11.677 0 19.677 7.6771 21.677 23.4584z"/><path d="m567.708 68.5208h20.094v-29.7708h12.198v72.594h-12.198v-32.3023h-20.094v32.3023h-12.208v-72.594h12.208z"/></g><path d="m75.2082 65.6452-15.2083-26.5104s-56.28127 94.6662-59.9271046 101.4162c-.2083334.386.0729166.875.5104166.875 7.593748.032 58.843788.011 84.968788 0 1.375 0 3.4479-.822 4.0833-1.885 5.4792-9.062 10.7087-18.281 16.7917-28.802h-55.1979c7.3645-12.8751 19.0729-31.1772 23.8125-38.5209 1.2812-1.9896 1.3437-4.5208.1666-6.5729z" fill="#345d9d"/><path d="m162.042 141.427c-27.511-47.6666-54.282-94.2082-81.5316-141.427-5.1458 8.875-9.7291 17.1458-14.6979 25.1667-2.2083 3.5729-1.8021 6.4375.2292 9.8229 5.5937 9.3333 10.9791 18.8021 16.4166 28.2396 14.0313 24.3541 27.7817 48.6768 41.9997 72.9268 1.302 2.219 4.75 5.24 7.021 5.271 10.167.146 19.271 0 30.563 0z" fill="#111c4e"/></g></svg>