<?xml version="1.0" encoding="UTF-8" standalone="no"?>
<!-- Created with Inkscape (http://www.inkscape.org/) -->

<svg
   xmlns:dc="http://purl.org/dc/elements/1.1/"
   xmlns:cc="http://creativecommons.org/ns#"
   xmlns:rdf="http://www.w3.org/1999/02/22-rdf-syntax-ns#"
   xmlns:svg="http://www.w3.org/2000/svg"
   xmlns="http://www.w3.org/2000/svg"
   xmlns:sodipodi="http://sodipodi.sourceforge.net/DTD/sodipodi-0.dtd"
   xmlns:inkscape="http://www.inkscape.org/namespaces/inkscape"
   width="132.37186"
   height="30.160101"
   viewBox="0 0 35.023387 7.97986"
   version="1.1"
   id="svg652"
   inkscape:version="0.92.0 r15299"
   sodipodi:docname="axcelis.svg">
  <defs
     id="defs646">
    <clipPath
       id="clipPath429"
       clipPathUnits="userSpaceOnUse">
      <path
         inkscape:connector-curvature="0"
         id="path427"
         d="m 247.5,691.86 h 98.528 v 21.87 H 247.5 Z" />
    </clipPath>
    <clipPath
       id="clipPath413"
       clipPathUnits="userSpaceOnUse">
      <path
         inkscape:connector-curvature="0"
         id="path411"
         d="m 247.5,691.86 h 98.528 v 21.87 H 247.5 Z" />
    </clipPath>
  </defs>
  <sodipodi:namedview
     id="base"
     pagecolor="#ffffff"
     bordercolor="#666666"
     borderopacity="1.0"
     inkscape:pageopacity="0.0"
     inkscape:pageshadow="2"
     inkscape:zoom="6.1048085"
     inkscape:cx="65.685926"
     inkscape:cy="14.580051"
     inkscape:document-units="mm"
     inkscape:current-layer="layer1"
     showgrid="false"
     fit-margin-top="0"
     fit-margin-left="0"
     fit-margin-right="0"
     fit-margin-bottom="0"
     units="px"
     inkscape:window-width="1280"
     inkscape:window-height="744"
     inkscape:window-x="-4"
     inkscape:window-y="-4"
     inkscape:window-maximized="1" />
  <metadata
     id="metadata649">
    <rdf:RDF>
      <cc:Work
         rdf:about="">
        <dc:format>image/svg+xml</dc:format>
        <dc:type
           rdf:resource="http://purl.org/dc/dcmitype/StillImage" />
        <dc:title></dc:title>
      </cc:Work>
    </rdf:RDF>
  </metadata>
  <g
     inkscape:label="Layer 1"
     inkscape:groupmode="layer"
     id="layer1"
     transform="translate(-13.450216,-29.020439)">
    <g
       id="g718"
       transform="translate(0.13229274,-0.13228998)">
      <path
         inkscape:connector-curvature="0"
         id="path401"
         style="fill:#0e315f;fill-opacity:1;fill-rule:nonzero;stroke:none;stroke-width:0.35277778"
         d="m 22.310658,31.583721 h -2.296584 l 1.400528,2.690636 1.432278,-1.512711 -0.536222,-1.177925" />
      <path
         inkscape:connector-curvature="0"
         id="path403"
         style="fill:#0e315f;fill-opacity:1;fill-rule:nonzero;stroke:none;stroke-width:0.35277778"
         d="m 22.175896,35.801532 0.51047,1.140178 h 2.330802 l -1.405819,-2.667353 -1.435453,1.527175" />
      <path
         inkscape:connector-curvature="0"
         id="path405"
         style="fill:#0e315f;fill-opacity:1;fill-rule:nonzero;stroke:none;stroke-width:0.35277778"
         d="m 18.83121,36.94171 h 2.330803 l 1.013883,-1.140178 -0.761294,-1.527175 -2.583392,2.667353" />
      <path
         inkscape:connector-curvature="0"
         id="path415"
         style="fill:#0e315f;fill-opacity:1;fill-rule:nonzero;stroke:none;stroke-width:0.35277778"
         d="m 26.200032,31.583712 h -2.296583 l -1.056569,1.177925 0.764469,1.512711 2.588683,-2.690636" />
      <path
         inkscape:connector-curvature="0"
         id="path417"
         style="fill:#0e315f;fill-opacity:1;fill-rule:nonzero;stroke:none;stroke-width:0.35277778"
         d="m 15.929966,35.867493 c -0.265289,0 -0.765528,0 -0.642056,-0.581731 0.104423,-0.489655 0.456142,-0.561269 0.884767,-0.561269 l 0.95885,0.0018 -0.103717,0.487891 c -0.118886,0.561622 -0.363008,0.653345 -1.097844,0.653345 m 1.087261,-4.347634 c -1.255536,0 -2.46768,-0.01023 -2.821164,1.65347 h 1.755422 c 0.1016,-0.479778 0.398992,-0.581731 0.837848,-0.581731 0.765527,0 0.729191,0.316089 0.622652,0.816328 l -0.07161,0.344311 h -1.541287 c -1.265413,0 -2.01048,0.367242 -2.27718,1.584678 -0.299508,1.365603 0.360539,1.663347 1.585383,1.663347 0.612422,0 1.434395,-0.122414 1.72332,-0.85725 h 0.06138 l -0.230364,0.796219 h 1.755422 l 0.7112,-3.347508 c 0.392642,-1.847144 -0.31503,-2.071864 -2.111022,-2.071864" />
      <path
         inkscape:connector-curvature="0"
         id="path419"
         style="fill:#0e315f;fill-opacity:1;fill-rule:nonzero;stroke:none;stroke-width:0.35277778"
         d="m 38.770916,36.93924 h -1.75507 l 1.626658,-7.654219 h 1.755424 l -1.627012,7.654219" />
      <path
         inkscape:connector-curvature="0"
         id="path421"
         style="fill:#0e315f;fill-opacity:1;fill-rule:nonzero;stroke:none;stroke-width:0.35277778"
         d="m 42.897709,30.631927 h -1.755421 l 0.286102,-1.346906 h 1.755775 l -0.286456,1.346906 m -1.340554,6.307313 h -1.755423 l 1.138766,-5.358341 h 1.755423 l -1.138766,5.358341" />
      <path
         inkscape:connector-curvature="0"
         id="path431"
         style="fill:#0e315f;fill-opacity:1;fill-rule:nonzero;stroke:none;stroke-width:0.35277778"
         d="m 34.345671,32.744704 c 0.591961,0 0.877006,0.0508 0.707672,0.847019 h -1.72473 c 0.170039,-0.704497 0.394405,-0.847019 1.017058,-0.847019 m 0.3937,2.462389 c -0.130528,0.511175 -0.484364,0.568677 -1.007533,0.568677 -0.724606,0 -0.808567,-0.275872 -0.609247,-1.214613 h 3.480152 l 0.0628,-0.295981 c 0.464255,-2.184047 -0.01834,-2.745317 -2.029178,-2.745317 -2.153003,0 -2.767894,0.683684 -3.206397,2.745317 -0.424745,2.00025 -0.07091,2.735086 2.041525,2.735086 0.775758,0 1.441803,-0.06103 1.955447,-0.316089 0.504119,-0.259644 0.861836,-0.704144 1.038225,-1.47708 h -1.725789" />
      <path
         inkscape:connector-curvature="0"
         id="path433"
         style="fill:#0e315f;fill-opacity:1;fill-rule:nonzero;stroke:none;stroke-width:0.35277778"
         d="m 46.086821,31.519859 c -1.490133,0 -2.629253,0.03069 -2.996142,1.755423 -0.231775,1.091847 0.05962,1.592086 2.284589,1.592086 0.612422,0 0.918281,0 0.805745,0.530577 -0.0889,0.418748 -0.22225,0.469548 -1.01847,0.469548 -0.411692,0 -0.832908,-3.53e-4 -0.751416,-0.534459 h -1.756834 c -0.329141,1.696861 0.89782,1.667228 2.267656,1.667228 1.408289,0 2.672644,-0.234597 3.006725,-1.806222 0.318911,-1.500364 -0.465314,-1.602317 -2.273653,-1.643239 -0.893586,-0.02046 -0.874889,-0.203906 -0.818797,-0.469547 0.06738,-0.316089 0.09137,-0.428272 1.010002,-0.428272 0.263173,0 0.619478,0 0.620537,0.392288 h 1.663347 l 0.04233,-0.198613 c 0.279753,-1.316567 -1.105958,-1.326798 -2.085622,-1.326798" />
      <path
         inkscape:connector-curvature="0"
         id="path435"
         style="fill:#0e315f;fill-opacity:1;fill-rule:nonzero;stroke:none;stroke-width:0.35277778"
         d="m 28.83881,34.920999 c -0.127,0.561975 -0.248355,0.731308 -0.991658,0.731308 -0.663575,0 -0.778228,-0.132644 -0.511175,-1.388533 0.259997,-1.224845 0.480836,-1.398411 1.103841,-1.398411 0.367242,0 0.563034,0.04057 0.661459,0.153105 0.09878,0.112184 0.09243,0.28575 0.02152,0.571853 h 1.755775 c 0.405695,-1.909586 -0.611011,-2.072569 -2.15265,-2.072569 -2.19463,0 -2.75978,0.928864 -3.146072,2.746022 -0.449439,2.113492 -0.09172,2.736144 1.980847,2.736144 0.949678,0 1.603728,-0.0508 2.077156,-0.357364 0.460728,-0.282927 0.746125,-0.801158 0.95638,-1.721555 h -1.755422" />
    </g>
  </g>
</svg>
