<?xml version="1.0" encoding="UTF-8" standalone="no"?>
<svg
   xmlns:dc="http://purl.org/dc/elements/1.1/"
   xmlns:cc="http://creativecommons.org/ns#"
   xmlns:rdf="http://www.w3.org/1999/02/22-rdf-syntax-ns#"
   xmlns:svg="http://www.w3.org/2000/svg"
   xmlns="http://www.w3.org/2000/svg"
   version="1.1"
   width="242.9075"
   height="111.64001"
   id="svg3049">
  <defs
     id="defs3051" />
  <metadata
     id="metadata3054">
    <rdf:RDF>
      <cc:Work
         rdf:about="">
        <dc:format>image/svg+xml</dc:format>
        <dc:type
           rdf:resource="http://purl.org/dc/dcmitype/StillImage" />
        <dc:title></dc:title>
      </cc:Work>
    </rdf:RDF>
  </metadata>
  <g
     transform="translate(-112.83197,-65.113616)"
     id="layer1">
    <g
       transform="matrix(1.25,0,0,-1.25,150.52447,161.75362)"
       id="g28">
      <path
         d="m 0,0 c -5.276,0 -9.829,1.762 -13.157,5.092 -3.271,3.274 -4.997,7.822 -4.997,13.156 l 0,11.163 c 0,5.275 1.726,9.797 4.997,13.068 3.328,3.328 7.881,5.089 13.157,5.089 4.391,0 8.597,-0.969 12.509,-2.882 1.736,-0.818 2.817,-2.536 2.817,-4.468 0,-2.539 -2.148,-4.607 -4.784,-4.607 -0.851,0 -1.609,0.272 -2.298,0.568 C 5.105,37.587 2.41,38.27 0,38.27 c -5.178,0 -8.149,-2.971 -8.149,-8.154 l 0,-12.577 c 0,-5.18 2.971,-8.153 8.149,-8.153 2.537,0 5.634,0.791 8.49,2.173 0.747,0.427 1.502,0.487 2.141,0.487 2.588,0 4.695,-2.106 4.695,-4.695 0,-1.909 -1.114,-3.624 -2.911,-4.474 C 8.508,0.971 4.329,0 0,0"
         id="path30"
         style="fill:#0076c0;fill-opacity:1;fill-rule:nonzero;stroke:none" />
    </g>
    <g
       transform="matrix(1.25,0,0,-1.25,185.51697,94.758616)"
       id="g32">
      <path
         d="m 0,0 c -3.231,0 -5.859,2.628 -5.859,5.859 0,3.232 2.628,5.857 5.859,5.857 3.23,0 5.857,-2.625 5.857,-5.857 C 5.857,2.628 3.23,0 0,0"
         id="path34"
         style="fill:#0076c0;fill-opacity:1;fill-rule:nonzero;stroke:none" />
    </g>
    <g
       transform="matrix(1.25,0,0,-1.25,185.51697,161.75362)"
       id="g36">
      <path
         d="m 0,0 c -2.787,0 -5.048,2.266 -5.048,5.049 l 0,37.472 c 0,2.782 2.261,5.049 5.048,5.049 2.78,0 4.959,-2.218 4.959,-5.049 l 0,-37.472 C 4.959,2.218 2.78,0 0,0"
         id="path38"
         style="fill:#231f20;fill-opacity:1;fill-rule:nonzero;stroke:none" />
    </g>
    <g
       transform="matrix(1.25,0,0,-1.25,225.51072,161.69612)"
       id="g40">
      <path
         d="m 0,0 c -5.279,0 -9.825,1.763 -13.154,5.092 -3.275,3.274 -5.005,7.822 -5.005,13.156 l 0,11.163 c 0,5.276 1.73,9.796 5.005,13.066 3.325,3.332 7.875,5.093 13.154,5.093 4.387,0 8.596,-0.969 12.508,-2.879 1.739,-0.825 2.818,-2.537 2.818,-4.472 0,-2.54 -2.145,-4.606 -4.784,-4.606 -0.858,0 -1.613,0.272 -2.299,0.569 C 5.103,37.589 2.408,38.27 0,38.27 c -5.179,0 -8.149,-2.968 -8.149,-8.152 l 0,-12.579 c 0,-5.18 2.97,-8.148 8.149,-8.148 2.539,0 5.634,0.789 8.488,2.168 0.746,0.432 1.505,0.488 2.143,0.488 2.589,0 4.695,-2.104 4.695,-4.693 0,-1.912 -1.116,-3.626 -2.913,-4.476 C 8.508,0.97 4.328,0 0,0"
         id="path42"
         style="fill:#231f20;fill-opacity:1;fill-rule:nonzero;stroke:none" />
    </g>
    <g
       transform="matrix(1.25,0,0,-1.25,275.33822,113.85862)"
       id="g44">
      <path
         d="m 0,0 c -5.742,0 -9.036,-3.293 -9.036,-9.037 l 0,-10.985 c 0,-5.686 3.294,-8.947 9.036,-8.947 5.746,0 9.038,3.261 9.038,8.947 l 0,10.985 C 9.038,-3.547 5.489,0 0,0 z m 0,-38.27 c -5.568,0 -10.331,1.824 -13.777,5.269 -3.446,3.448 -5.268,8.21 -5.268,13.777 l 0,9.478 c 0,5.571 1.822,10.335 5.268,13.78 C -10.331,7.477 -5.568,9.3 0,9.3 c 5.569,0 10.333,-1.823 13.779,-5.266 3.445,-3.448 5.266,-8.213 5.266,-13.78 l 0,-9.478 c 0,-5.565 -1.821,-10.327 -5.266,-13.777 C 10.333,-36.446 5.569,-38.27 0,-38.27"
         id="path46"
         style="fill:#231f20;fill-opacity:1;fill-rule:nonzero;stroke:none" />
    </g>
    <g
       transform="matrix(1.25,0,0,-1.25,316.59822,161.69362)"
       id="g48">
      <path
         d="m 0,0 c -2.83,0 -5.051,2.218 -5.051,5.048 l 0,28.879 c 0,7.778 5.867,13.641 13.643,13.641 2.111,0 4.312,-0.237 6.729,-0.719 2.351,-0.487 3.992,-2.453 3.992,-4.774 0,-2.676 -2.059,-4.693 -4.786,-4.693 -0.55,0 -0.852,0 -1.611,0.19 -1.444,0.36 -2.967,0.695 -4.324,0.695 -1.968,0 -3.633,-1.663 -3.633,-3.632 l 0,-29.587 C 4.959,2.264 2.734,0 0,0"
         id="path50"
         style="fill:#231f20;fill-opacity:1;fill-rule:nonzero;stroke:none" />
    </g>
  </g>
</svg>
