<?xml version="1.0" encoding="UTF-8"?>
<svg id="Layer_1" xmlns="http://www.w3.org/2000/svg" version="1.1" viewBox="0 0 172.9 41.7">
  <!-- Generator: Adobe Illustrator 29.2.1, SVG Export Plug-In . SVG Version: 2.1.0 Build 116)  -->
  <defs>
    <style>
      .st0 {
        fill: #6f6259;
      }

      .st1 {
        fill: #bc2328;
      }
    </style>
  </defs>
  <g id="Entegris_Logo_1-Line-2_color">
    <g>
      <g>
        <path class="st0" d="M100.9,22.2c0,5.7,3.4,9.7,8.4,9.7s5.9-1.7,6.9-4.8v-.3l-1.3-.4v.2c-.8,2-2.6,3.7-4.8,3.7s-4.4-2.2-4.4-7.1v-1.2h10.9v-.5c0-5.7-3-9.6-7.7-9.6s-8,4.3-8,10.1M105.7,20.5v-.7c0-4.5,1-6.7,3.3-6.7s3.2,2.3,3.2,6.5v.8h-6.5Z"/>
        <path class="st0" d="M150.3,8.2c0,1.3,1.3,2.4,2.9,2.4s2.9-1.1,2.9-2.4-1.3-2.4-2.9-2.4-2.9,1.1-2.9,2.4"/>
        <path class="st0" d="M99.8,29.6c-.7,0-1.2-.6-1.2-2.7v-12.9h2.7v-1.9h-2.7v-5.5h-1.2l-3.4,5.5h-1.2v1.8h1.2v11.4c0,3.9.6,6,4.3,6.1h3v-1.9h-1.6,0Z"/>
        <path class="st0" d="M158.6,16.9c0,3.6,2.4,5.1,5.8,6.7l.8.4c2.8,1.3,4.1,2.2,4.1,3.7s-1.6,2.8-3,2.8c-2.3,0-5.5-1.9-5.8-4.7h-1.7v5.7h1.8v-.5c0-.3.2-.4.4-.4s.7.2,1.2.5c.9.5,2.2.8,4.3.8,3.5,0,6.4-2.6,6.4-5.7s-2.6-5.5-6.9-7.4h0c-2.6-1.2-4-1.9-4-3.1s1.2-2.5,2.8-2.5c2.4,0,4.6,1.6,5.4,4.2h1.6v-5.3h-1.7v.5c0,.3,0,.4-.4.4s-.9-.3-1.2-.5c-.7-.3-2.2-.7-3.9-.7-3.2,0-6,2.2-6,5.1"/>
        <path class="st0" d="M125.7,30.3c-2.3,0-3.2-2.5-3.2-8.8s1-7.6,2.9-7.6,3.5,2.1,3.5,6.1v4.5c0,3.6-1.2,5.8-3.3,5.8M120.6,41.5c4.2,0,7.4-1.2,9.6-3.5,2-2.1,3.1-5.2,3.1-9v-13.7c0-.6,0-.9.2-1,.2-.2.4-.2,1.2-.2h.4v-1.9h-5.9v2.8c-1.1-1.8-2.9-2.8-4.8-2.8-3.7,0-6.7,4.3-6.7,9.9s3,9.9,7.3,9.9,2.9-.6,4-1.8v1.3c0,1.4-.4,3.7-2,5.6-1.4,1.8-3.5,2.8-6.3,3.1v1.5-.2h-.1Z"/>
        <path class="st0" d="M157.8,29.6h-.4c-.8,0-1,0-1.2-.2s-.2-.4-.2-1V12.2h-6.4v1.9h.4c.8,0,1,0,1.2.2s.2.4.2,1v16.2h6.4s0-1.9,0-1.9Z"/>
        <path class="st0" d="M66.2,4.6c5.5,0,5.5,1.1,6.6,3.5h1.2V3h-16.9v1.9h.5c.8,0,1,0,1.2.2s.2.4.2,1v22.2c0,.6,0,.9-.2,1-.2.2-.4.2-1.2.2h-.5v1.9h17.1v-5.8h-1.3c-1,2.9-1,4.2-6.3,4.2s-3-.2-3-2.9v-10.3h1.1c4.3,0,4,.9,4.3,3.2h1.1v-7.7h-1.1c-.4,2.6,0,3-4.3,3h-1.1V6.6c0-1.9-.4-2.2,2.5-2.2"/>
        <path class="st0" d="M92.8,29.6c-.8,0-1,0-1.2-.2s-.2-.4-.2-1v-9.2c0-4.6-1.3-7.1-5.5-7.1s-4.8,1.4-5.7,3.2v-3.1h-5.9v1.9h.4c.8,0,1,0,1.2.2s.2.4.2,1v16.2h6.2v-1.9h-.4c-.8,0-1,0-1.2-.2s-.2-.4-.2-1v-8.3c0-3.6,2.5-6.1,4.4-6.1s2,2,2,3.9v13.7h6.2v-1.9h-.4,0Z"/>
        <path class="st0" d="M146.3,11.9c-1.6,0-3.3,1.4-4.3,4.2h0v-4h-6.1v1.9h.4c.8,0,1,0,1.2.2s.2.4.2,1v16.2h6.3v-1.9h-.4c-.8,0-1,0-1.2-.2s-.2-.4-.2-1v-7.3c0-3.9,1-5.8,1.7-5.8s.3.4.6,1.1c.3.9,1.1,1.5,2.1,1.5,1.5,0,2.5-1.1,2.5-2.9s-1.3-3-2.8-3"/>
      </g>
      <path class="st1" d="M49.6,15.7c-2.8-3.8-8.5-6.8-14.9-7.7-1.8-.3-3.5-.4-5.1-.3,0-2.3-.8-4.3-2.2-5.7S24,0,21.7,0c-4.6.1-10.3,3.2-14.7,8.1C2.6,12.9,0,18.9,0,23.7,0,26.1.8,28.1,2.3,29.5c3.9,3.7,11.5,2,18-3.8-.4-.3-.8-.6-1.2-1-3,2.5-6.2,4-8.8,4s-2.8-.4-3.7-1.2c-.9-.9-1.4-2.1-1.4-3.7-.1-3.6,2.1-8.3,5.7-12.2,3.6-3.9,8-6.5,11.5-6.6,1.5,0,2.8.4,3.6,1.2.5.4.8,1,1,1.6v.3-.3c-6.5.8-11.3,4-11.9,8.5-.4,2.9,1.1,5.9,4,8.3.4.3.8.6,1.2,1,2.9,2.1,6.9,3.7,11.4,4.4,10,1.5,18.8-2.3,19.6-8.4.3-2-.3-4-1.7-6h0ZM20.2,19c-.9-1.3-1.3-2.7-1.2-3.9.2-1.3.9-2.5,2.2-3.5,1.5-1.2,3.6-2,6.1-2.3,0-.3,0-.6-.2-.8,0,.3,0,.5.2.8v.8c0,3.3-1.7,7.5-4.8,11.2,0,0,.2,0,.3.2,0,0-.2,0-.3-.2-.9-.7-1.7-1.5-2.3-2.3ZM47.4,19.2c-.6,4.3-7.4,6.9-15.3,5.8-3.2-.5-6.1-1.5-8.4-2.9,0,0-.2,0-.3-.2,0,0,.2,0,.3.2,3.5-4.3,5.5-9,5.8-13h0c1.5,0,3.2,0,4.8.2,7.8,1.1,13.7,5.6,13.1,9.9Z"/>
    </g>
  </g>
</svg>