<svg id="ロゴ" xmlns="http://www.w3.org/2000/svg" width="153" height="59" viewBox="0 0 153 59">
  <defs>
    <style>
      .cls-1, .cls-2 {
        fill-rule: evenodd;
      }

      .cls-2 {
        fill: #0a2a78;
      }
    </style>
  </defs>
  <path id="KOKUSAI_ELECTRIC" data-name="KOKUSAI ELECTRIC" class="cls-1" d="M366.142,78.861l-2.709-4.477-1.263,1.662v2.815h-2.155V68.246h2.155V72.83l3.357-4.585h2.555l-3.248,4.292,3.88,6.323h-2.572ZM374.6,79c-2.387,0-4.064-1.446-4.064-4.693V72.8c0-3.277,1.677-4.692,4.064-4.692s4.079,1.415,4.079,4.692v1.508C378.675,77.554,377,79,374.6,79Zm-1.909-4.693c0,2.031.662,2.877,1.909,2.877s1.924-.846,1.924-2.877V72.8c0-2.031-.677-2.877-1.924-2.877s-1.909.846-1.909,2.877v1.508Zm15.258,4.554-2.71-4.477-1.262,1.662v2.815h-2.156V68.246h2.156V72.83l3.356-4.585h2.556l-3.249,4.292,3.88,6.323h-2.571ZM401.14,68.246v6.308c0,3.138-1.724,4.446-4.08,4.446s-4.08-1.308-4.08-4.431V68.246h2.156v6.323c0,1.815.6,2.615,1.924,2.615s1.925-.8,1.925-2.615V68.246h2.155ZM410.132,71a2.164,2.164,0,0,0-2.094-1.077,1.236,1.236,0,0,0-1.494,1.169c0,0.831.678,1.2,2.094,1.554,2.217,0.554,3.218,1.385,3.218,3.262,0,1.738-1.17,3.092-3.664,3.092a4.68,4.68,0,0,1-4.1-1.739l1.647-1.138a2.653,2.653,0,0,0,2.309,1.061c1.232,0,1.648-.539,1.648-1.184,0-.739-0.447-1.154-2.171-1.6-2.094-.554-3.141-1.554-3.141-3.308,0-1.677,1.109-2.985,3.633-2.985a4.127,4.127,0,0,1,3.726,1.738Zm3.449,7.862,3.7-10.616h2.062l3.695,10.616H420.74l-0.646-2.015h-3.557l-0.646,2.015h-2.31Zm3.526-3.831h2.4l-1.2-3.739Zm10.608,3.831H425.56V68.246h2.155V78.861Zm15.458-10.616v1.831h-4.464v2.385h4v1.816h-4v2.769h4.464v1.815h-6.619V68.246h6.619Zm5.021,8.8h4.464v1.815h-6.62V68.246h2.156v8.8Zm13.595-8.8v1.831h-4.465v2.385h4v1.816h-4v2.769h4.465v1.815h-6.62V68.246h6.62Zm8.437,3.292a1.763,1.763,0,0,0-1.832-1.615c-1.247,0-1.909.846-1.909,2.877v1.508c0,1.97.662,2.877,1.909,2.877a1.71,1.71,0,0,0,1.832-1.615h2.048C471.92,77.954,470.58,79,468.394,79c-2.386,0-4.064-1.446-4.064-4.693V72.8c0-3.277,1.678-4.692,4.064-4.692a3.635,3.635,0,0,1,3.895,3.431h-2.063Zm11.81-3.292v1.831H479.11v8.785h-2.155V70.077H474.03V68.246h8.006Zm8.33,10.616-1.909-4.17h-1.725v4.17h-2.155V68.246h3.8c2.447,0,3.971,1.092,3.971,3.246a2.831,2.831,0,0,1-1.816,2.846l2.2,4.523h-2.37Zm-2.186-5.985c1.277,0,2.016-.277,2.016-1.385s-0.739-1.416-2.016-1.416h-1.448v2.8h1.448Zm9.577,5.985H495.6V68.246h2.156V78.861Zm9.191-7.323a1.763,1.763,0,0,0-1.832-1.615c-1.247,0-1.909.846-1.909,2.877v1.508c0,1.97.662,2.877,1.909,2.877a1.71,1.71,0,0,0,1.832-1.615H509C508.642,77.954,507.3,79,505.116,79c-2.386,0-4.064-1.446-4.064-4.693V72.8c0-3.277,1.678-4.692,4.064-4.692a3.635,3.635,0,0,1,3.9,3.431h-2.063Z" transform="translate(-360 -20)"/>
  <path id="logomark_KE" class="cls-2" d="M376.323,65.387H360V20h16.323v45.39ZM431,20L399.742,42.692l30.319,22.695H406.642L376.323,42.692,407.577,20H431Zm75.644,27.657L513,42.692l-6.837-4.964H446.03l12.6-9.15,34.832-.07L481.744,20H447.028L415.773,42.692l30.319,22.695h37.84l10.9-8.513H457.357l-11.87-9.267Z" transform="translate(-360 -20)"/>
</svg>
