<?xml version="1.0" encoding="UTF-8"?>
<svg id="Ebene_1" xmlns="http://www.w3.org/2000/svg" version="1.1" viewBox="0 0 150 150">
  <!-- Generator: Adobe Illustrator 29.3.1, SVG Export Plug-In . SVG Version: 2.1.0 Build 151)  -->
  <defs>
    <style>
      .st0, .st1, .st2, .st3 {
        display: none;
      }

      .st0, .st4 {
        fill: #ebebeb;
      }

      .st1, .st5 {
        fill: #003d21;
      }

      .st6, .st2 {
        fill: #1c1c1c;
      }

      .st7 {
        fill: #f4ff28;
      }

      .st8 {
        fill: #78d147;
      }
    </style>
  </defs>
  <g id="Logo_Circuit">
    <rect id="Circuit" class="st5" y="0" width="150" height="150"/>
    <g id="Lab14_Positive">
      <path class="st4" d="M40.4,95.9h-10.5c-1.4,0-2.6-1.2-2.6-2.6v-31.5h0c0-1.4-1.2-2.6-2.6-2.6s-2.6,1.2-2.6,2.6h0v5.2h0v31.5c0,1.4,1.2,2.6,2.6,2.6h15.7c1.4,0,2.6-1.2,2.6-2.6s-1.2-2.6-2.6-2.6h0Z"/>
      <path class="st4" d="M74.5,61.8h0c0-1.4-1.2-2.6-2.6-2.6h-10.5c-2.6,0-1.5.3-1.9.9-1.9,1.8-7.8,7.7-10.4,10.4h0c-.5.5-.8,1.1-.8,1.9v26.2c0,2.6,1.2,2.6,2.6,2.6s2.6-1.2,2.6-2.6v-15.8c0-1.4,1.2-2.5,2.6-2.5h10.5s0,0,0,0h0c1.4,0,2.5,1.1,2.6,2.4,0,1.9,0,14.2,0,15.9h0c0,1.4,1.2,2.6,2.6,2.6s2.6-1.2,2.6-2.6h0c0-1,0-35,0-36.7h0ZM58,69c2.2-2.2,2.6-2.6,4.2-4.2.2-.2.4-.3.7-.3h3.8c1.4,0,2.6,1.2,2.6,2.6h0v5.3c0,1.4-1.2,2.6-2.6,2.6h-12.2c-.2,0-.5,0-.7-.3-.4-.4-.4-1,0-1.4,1.7-1.7,4.3-4.3,4.3-4.3h0Z"/>
      <path class="st4" d="M105.7,93.3c0-3.5,0-7,0-10.5h0c0-1.4-1.2-2.6-2.6-2.6h0c-1.4,0-2.6-1.2-2.6-2.6h0c0-1.4,1.2-2.6,2.6-2.6h0c1.4,0,2.6-1.2,2.6-2.6v-5.2c0-1.4-1.2-2.6-2.6-2.6h0c-1.4,0-2.6-1.2-2.6-2.6h0c0-1.4-1.2-2.6-2.6-2.6h-15.7c-1.4,0-2.6,1.2-2.6,2.6h0v21h0v15.7h0c0,1.4,1.2,2.6,2.6,2.6h15.7c1.4,0,2.6-1.2,2.6-2.6s0,0,0,0h0c0-1.4,1.1-2.5,2.5-2.6h0c.5,0,1.1-.2,1.5-.5.7-.5,1.2-1.3,1.2-2.2s0,0,0,0h0ZM100.5,67.1v5.2c0,1.4-1.2,2.6-2.6,2.6h-5.2c-1.7,0-3.5,0-5.2,0-1.4,0-2.5-1-2.6-2.3v-5.7c.1-1.4,1.2-2.4,2.6-2.4h10.5c1.4,0,2.6,1.2,2.6,2.6h0ZM97.8,95.9h-10.5c-1.4,0-2.6-1.2-2.6-2.6v-10.5c0-1.4,1.2-2.6,2.6-2.6h0c3.5,0,7,0,10.5,0,1.4,0,2.6,1.2,2.6,2.6h0c0,2.5,0,10.6,0,10.6,0,1.4-1.2,2.5-2.6,2.5h0,0Z"/>
      <path class="st4" d="M126.1,51.9h0c-1,0-1.8-.8-1.8-1.8s.8-1.8,1.8-1.8h0c1,0,1.8-.8,1.8-1.8s-.8-1.8-1.8-1.8-1.8.8-1.8,1.8h0c0,1-.8,1.8-1.8,1.8h-4.9s0,0,0,0c-.1,0-.3,0-.4-.2,0,0,0-.1-.1-.2h0c-.1-.2-.1-.5,0-.7,0,0,0-.1.1-.2l3-3,3.7-3.7h0c.3-.3.5-.8.5-1.3,0-1-.8-1.8-1.8-1.8s-1,.2-1.3.5h0c-1.2,1.2-2.5,2.4-3.7,3.7h0c-1.2,1.2-2.4,2.5-3.7,3.7-1.8,1.8,0,0,0,0h0c-.3.3-.5.8-.5,1.3s0,0,0,0v3.7h0c0,1,.8,1.8,1.8,1.8h7.3c1,0,1.8.8,1.8,1.8v3.7c0,1,.8,1.8,1.8,1.8s1.8-.8,1.8-1.8v-3.7c0-1-.8-1.8-1.8-1.8h0Z"/>
      <path class="st4" d="M107.8,37.2c-1,0-1.8.8-1.8,1.8v18.4c0,1,.8,1.8,1.8,1.8s1.8-.8,1.8-1.8v-18.4c0-1-.8-1.8-1.8-1.8h0Z"/>
    </g>
  </g>
  <g id="Logo_Negative">
    <rect id="Positive" class="st0" x="1095" y="-925" width="2000" height="2000"/>
    <g id="Logo_Negative1">
      <path class="st6" d="M1633.7,354.2h-139.8c-19.3,0-35-15.6-35-35V-100.2h0c0-19.3-15.6-35-35-35s-34.9,15.6-35,34.9h0V-30.4h0v419.4c0,19.3,15.6,35,35,35h209.7c19.3,0,35-15.6,35-35s-15.6-35-35-35v.2Z"/>
      <path class="st6" d="M2088.4-100.4h0c-.2-19.1-15.7-34.6-34.9-34.6h-139.7c-35,0-19.5,4.4-25.9,11.5-24.7,24.6-103.6,103.3-138.6,138.2h0c-6.4,6.3-10.3,15.1-10.3,24.8v349.6c0,35,15.6,35,35,35s35-15.6,35-35v-210.6c.5-18.9,15.9-34,34.9-34h139.8c0,0,0,0,0,0h0c18.6,0,33.8,14.4,35.2,32.6,0,24.7.2,189.2.3,212.1h0c0,19.3,15.7,34.9,35,34.9s35-15.6,35-35h0c0-13.5-.6-466.8-.6-489.5h-.2ZM1868.6-5.5c29.5-29.4,34.1-34,55.8-55.6,2.5-2.5,5.9-3.9,9.4-3.9l50.1.2c19.1,0,34.6,15.4,34.7,34.5h0V39.8c-.2,19.2-15.8,34.7-35.1,34.7h-163.2c-3.2,0-6.5-1.3-9-3.7-5.3-5.1-5.6-13.5-.6-18.8,23.3-23.3,57.7-57.5,57.7-57.5h.2Z"/>
      <path class="st6" d="M2504.5,319.1c0-46.6-.2-93.2-.3-139.8h0c0-19.2-15.6-34.8-34.9-34.9h0c-19.3,0-34.9-15.7-34.8-35h0c0-19.3,15.7-34.8,34.9-34.8h0c19.3,0,35-15.6,35-35V-30.3c0-19.3-15.6-34.9-34.9-35h0c-19.2,0-34.8-15.6-34.8-34.9h0c0-19.3-15.6-34.9-34.9-35h-209.8c-19.3,0-35,15.6-35,35h0v489.4h0c0,19.3,15.6,34.9,34.9,35h209.4c19.3,0,35-15.6,35-35s0-.2,0-.3l.3.3c0-18.8,14.9-34.2,33.5-34.9h1.3c7.3,0,14-2.2,19.6-6,9.3-6.3,15.5-16.9,15.5-29s0,0,0,0h0v-.2ZM2434.6-30.3V39.6c0,19.3-15.7,34.8-34.9,34.8h-70c-23.3,0-46.5,0-69.8.2-18,0-32.8-13.6-34.8-31V-32.9c1.4-18.1,16.5-32.3,35-32.3h139.8c19.2,0,34.8,15.6,34.8,34.9h-.1ZM2399.4,354.2h-139.5c-19.2,0-34.8-15.5-35-34.7v-140.2c0-19.2,15.6-34.7,34.8-34.7h0c46.6,0,93.2-.1,139.7-.2,19.3,0,34.9,15.7,34.8,35h0c0,33,.2,141,.2,141.7-1,18.4-16.2,33-34.9,33h-.3.2Z"/>
      <path class="st6" d="M2776.5-233.5h0c-13.5,0-24.4-10.9-24.4-24.4s11-24.4,24.4-24.4h0c13.5,0,24.5-11,24.5-24.5s-11-24.5-24.5-24.5-24.5,10.9-24.5,24.4h0c0,13.5-11,24.4-24.4,24.4h-65.3c-.4,0-.8,0-1.3,0-1.9-.3-3.7-1.2-5.2-2.6-.6-.6-1.2-1.4-1.6-2.1h0c-1.5-2.8-1.5-6.2,0-9,.4-.8.9-1.5,1.6-2.1,7.9-7.9,23.4-23.4,40.1-40.1,17.6-17.6,36.5-36.5,49.1-49.1h0c4.4-4.4,7.2-10.5,7.2-17.3,0-13.5-11-24.5-24.5-24.5s-12.9,2.7-17.3,7.2h0c-16.3,16.3-32.7,32.6-49,48.9h0c-16.3,16.3-32.6,32.7-48.9,49-24.5,24.5,0,0,0,0h0c-4.4,4.4-7.2,10.5-7.2,17.3s0,0,0,.2v48.7h0c0,13.5,10.9,24.4,24.4,24.5h97.9c13.5,0,24.4,10.9,24.4,24.4v48.9c0,13.5,11,24.5,24.5,24.5s24.5-11,24.5-24.5v-48.9c0-13.5-11-24.5-24.5-24.5v.2Z"/>
      <path class="st6" d="M2531.9-429.6c-13.5,0-24.5,11-24.5,24.5v245.1c0,13.5,11,24.5,24.5,24.5s24.5-11,24.5-24.5v-245.1c0-13.5-11-24.5-24.5-24.5h0Z"/>
    </g>
    <g id="Logo_Negative_borderless" class="st3">
      <path class="st6" d="M1454.6,492.8h-194.1c-26.8,0-48.5-21.7-48.5-48.5V-137.9h0c0-26.8-21.7-48.5-48.5-48.5s-48.5,21.7-48.5,48.5h0V-40.9h0v582.2c0,26.8,21.7,48.5,48.5,48.5h291.1c26.8,0,48.5-21.7,48.5-48.5s-21.7-48.5-48.5-48.5Z"/>
      <path class="st6" d="M2085.8-138.2h0c-.3-26.5-21.8-48-48.4-48.1h-193.9c-48.6,0-27.1,6.2-36,16-34.3,34.2-143.9,143.4-192.4,191.8h0c-8.8,8.8-14.3,20.9-14.3,34.4v485.3c0,48.6,21.7,48.5,48.5,48.5s48.5-21.7,48.5-48.5V248.8c.7-26.2,22.1-47.2,48.4-47.2h194.1c25.8,0,47,19.9,48.8,45.3,0,34.3.3,262.6.4,294.5h0c0,26.8,21.7,48.5,48.5,48.5s48.5-21.7,48.5-48.5h0c0-18.7-.8-648-.9-679.5h.2ZM1780.7-6.5c40.9-40.8,47.3-47.2,77.4-77.2,3.5-3.5,8.2-5.4,13.1-5.4l69.5.2c26.5,0,48.1,21.3,48.2,47.9h0v.3c0,28.9,0,61.8.1,97-.2,26.7-21.9,48.2-48.7,48.2h-226.5c-4.5,0-9-1.8-12.5-5.1-7.4-7-7.7-18.7-.8-26.1,32.4-32.3,80.1-79.8,80.1-79.8h0Z"/>
      <path class="st6" d="M2663.4,444.1c-.1-64.7-.3-129.3-.4-194h0c0-26.7-21.7-48.4-48.4-48.4h0c-26.8,0-48.4-21.8-48.4-48.6h0c0-26.7,21.8-48.4,48.5-48.3h0c26.8,0,48.5-21.7,48.5-48.5V-40.8c0-26.8-21.7-48.5-48.5-48.5h0c-26.7,0-48.3-21.7-48.3-48.4h0c0-26.8-21.7-48.5-48.5-48.5h-291.3c-26.8,0-48.5,21.7-48.5,48.5h0v679.2h0c0,26.8,21.7,48.5,48.5,48.5h290.6c26.8,0,48.5-21.7,48.5-48.5s0-.3,0-.5l.4.4c0-26.1,20.7-47.4,46.5-48.5h1.8c10.1,0,19.4-3.1,27.2-8.3,13-8.7,21.5-23.5,21.5-40.3s0,0,0,0h0l.3-.2ZM2566.4-41V56c0,26.7-21.8,48.4-48.5,48.3h-97.2c-32.3,0-64.6.2-96.9.3-25,0-45.5-18.8-48.2-43.1V-44.6c1.9-25.1,22.9-44.9,48.6-44.8h194.1c26.7,0,48.3,21.7,48.3,48.4h-.2ZM2517.5,492.8h-193.6c-26.7,0-48.3-21.5-48.5-48.2v-194.7c0-26.6,21.7-48.1,48.3-48.2h0c64.7,0,129.3-.2,193.9-.3,26.8,0,48.4,21.8,48.3,48.6h0c0,.2,0,0,0,0h0c0,45.8.2,195.8.3,196.6-1.4,25.6-22.6,45.8-48.5,45.8h.1c-.1,0-.3,0-.4,0v.3Z"/>
      <path class="st6" d="M3041-323h0c-18.7,0-33.9-15.1-33.9-33.9s15.2-33.8,33.9-33.8h0c18.8,0,34-15.2,34-34s-15.2-34-34-34-33.9,15.2-34,33.9h0c0,18.7-15.2,33.9-33.9,33.9h-90.7c-.6,0-1.2,0-1.7,0-2.6-.4-5.2-1.6-7.2-3.7-.9-.9-1.6-1.9-2.2-2.9h0c-2.1-3.9-2.1-8.6,0-12.5.6-1,1.3-2,2.2-2.9,10.9-10.9,32.5-32.5,55.6-55.7,24.4-24.4,50.7-50.7,68.1-68.1h0c6.2-6.1,10-14.6,10-24,0-18.8-15.2-34-34-34s-17.9,3.8-24,9.9h0c-22.7,22.7-45.3,45.3-68,67.9h0c-22.6,22.7-45.2,45.3-67.9,68-34,34,0,0,0,0h0c-6.1,6.1-9.9,14.6-9.9,24s0,.2,0,.2v67.7h0c0,18.7,15.2,33.9,33.9,34h0c34,0,68,0,68,0h67.9c18.7,0,33.9,15.2,33.9,33.9v67.9c0,18.8,15.2,34,34,34s34-15.2,34-34v-67.9c0-18.8-15.2-34-34-34h-.1Z"/>
      <path class="st6" d="M2701.5-595.3c-18.8,0-34,15.2-34,34V-221.1c0,18.8,15.2,34,34,34s34-15.2,34-34v-340.2c0-18.8-15.2-34-34-34Z"/>
    </g>
  </g>
  <g id="Logo_Positive">
    <rect id="Negative" class="st2" x="3115" y="-925" width="2000" height="2000"/>
    <g id="Logo_Positive1">
      <path class="st4" d="M3653.7,354.2h-139.8c-19.3,0-35-15.6-35-35V-100.2h0c0-19.3-15.6-35-35-35s-34.9,15.6-35,34.9h0V-30.4h0v419.4c0,19.3,15.6,35,35,35h209.7c19.3,0,35-15.6,35-35s-15.6-35-35-35v.2Z"/>
      <path class="st4" d="M4108.4-100.4h0c-.2-19.1-15.7-34.6-34.9-34.6h-139.7c-35,0-19.5,4.4-25.9,11.5-24.7,24.6-103.6,103.3-138.6,138.2h0c-6.4,6.3-10.3,15.1-10.3,24.8v349.6c0,35,15.6,35,35,35s35-15.6,35-35v-210.6c.5-18.9,15.9-34,34.9-34h139.8c.1,0,0,0,0,0h0c18.6,0,33.8,14.4,35.2,32.6,0,24.7.2,189.2.3,212.1h0c0,19.3,15.7,34.9,35,34.9s35-15.6,35-35h0c0-13.5-.6-466.8-.6-489.5h-.2ZM3888.6-5.5c29.5-29.4,34.1-34,55.8-55.6,2.5-2.5,5.9-3.9,9.4-3.9l50.1.2c19.1,0,34.6,15.4,34.7,34.5h0V39.8c-.2,19.2-15.8,34.7-35.1,34.7h-163.2c-3.2,0-6.5-1.3-9-3.7-5.3-5.1-5.6-13.5-.6-18.8,23.3-23.3,57.7-57.5,57.7-57.5h.2Z"/>
      <path class="st4" d="M4524.5,319.1c0-46.6-.2-93.2-.3-139.8h0c0-19.2-15.6-34.8-34.9-34.9h0c-19.3,0-34.9-15.7-34.8-35h0c0-19.3,15.7-34.8,34.9-34.8h0c19.3,0,35-15.6,35-35V-30.3c0-19.3-15.6-34.9-34.9-35h0c-19.2,0-34.8-15.6-34.8-34.9h0c0-19.3-15.6-34.9-34.9-35h-209.8c-19.3,0-35,15.6-35,35h0v489.4h0c0,19.3,15.6,34.9,34.9,35h209.4c19.3,0,35-15.6,35-35s0-.2,0-.3l.3.3c0-18.8,14.9-34.2,33.5-34.9h1.3c7.3,0,14-2.2,19.6-6,9.3-6.3,15.5-16.9,15.5-29s0,0,0,0h0v-.2ZM4454.6-30.3V39.6c0,19.3-15.7,34.8-34.9,34.8h-70c-23.3,0-46.5,0-69.8.2-18,0-32.8-13.6-34.8-31V-32.9c1.4-18.1,16.5-32.3,35-32.3h139.8c19.2,0,34.8,15.6,34.8,34.9h-.1ZM4419.4,354.2h-139.5c-19.2,0-34.8-15.5-35-34.7v-140.2c0-19.2,15.6-34.7,34.8-34.7h0c46.6,0,93.2-.1,139.7-.2,19.3,0,34.9,15.7,34.8,35h0c0,33,.2,141,.2,141.7-1,18.4-16.2,33-34.9,33h-.3.2Z"/>
      <path class="st4" d="M4796.5-233.5h0c-13.5,0-24.4-10.9-24.4-24.4s11-24.4,24.4-24.4h0c13.5,0,24.5-11,24.5-24.5s-11-24.5-24.5-24.5-24.5,10.9-24.5,24.4h0c0,13.5-11,24.4-24.4,24.4h-65.3c-.4,0-.8,0-1.3,0-1.9-.3-3.7-1.2-5.2-2.6-.6-.6-1.2-1.4-1.6-2.1h0c-1.5-2.8-1.5-6.2,0-9,.4-.8.9-1.5,1.6-2.1,7.9-7.9,23.4-23.4,40.1-40.1,17.6-17.6,36.5-36.5,49.1-49.1h0c4.4-4.4,7.2-10.5,7.2-17.3,0-13.5-11-24.5-24.5-24.5s-12.9,2.7-17.3,7.2h0c-16.3,16.3-32.7,32.6-49,48.9h0c-16.3,16.3-32.6,32.7-48.9,49-24.5,24.5,0,0,0,0h0c-4.4,4.4-7.2,10.5-7.2,17.3s0,0,0,.2v48.7h0c0,13.5,10.9,24.4,24.4,24.5h97.9c13.5,0,24.4,10.9,24.4,24.4v48.9c0,13.5,11,24.5,24.5,24.5s24.5-11,24.5-24.5v-48.9c0-13.5-11-24.5-24.5-24.5v.2Z"/>
      <path class="st4" d="M4551.9-429.6c-13.5,0-24.5,11-24.5,24.5v245.1c0,13.5,11,24.5,24.5,24.5s24.5-11,24.5-24.5v-245.1c0-13.5-11-24.5-24.5-24.5h0Z"/>
    </g>
    <g id="Logo_Positive_borderless" class="st3">
      <path class="st4" d="M3474.6,492.8h-194.1c-26.8,0-48.5-21.7-48.5-48.5V-137.9h0c0-26.8-21.7-48.5-48.5-48.5s-48.5,21.7-48.5,48.5h0V-40.9h0v582.2c0,26.8,21.7,48.5,48.5,48.5h291.1c26.8,0,48.5-21.7,48.5-48.5s-21.7-48.5-48.5-48.5Z"/>
      <path class="st4" d="M4105.8-138.2h0c-.3-26.5-21.8-48-48.4-48.1h-193.9c-48.6,0-27.1,6.2-36,16-34.3,34.2-143.9,143.4-192.4,191.8h0c-8.8,8.8-14.3,20.9-14.3,34.4v485.3c0,48.6,21.7,48.5,48.5,48.5s48.5-21.7,48.5-48.5V248.8c.7-26.2,22.1-47.2,48.4-47.2h194.1c25.8,0,47,19.9,48.8,45.3,0,34.3.3,262.6.4,294.5h0c0,26.8,21.7,48.5,48.5,48.5s48.5-21.7,48.5-48.5h0c0-18.7-.8-648-.9-679.5h.2ZM3800.7-6.5c40.9-40.8,47.3-47.2,77.4-77.2,3.5-3.5,8.2-5.4,13.1-5.4l69.5.2c26.5,0,48.1,21.3,48.2,47.9h0v.3c0,28.9,0,61.8.1,97-.2,26.7-21.9,48.2-48.7,48.2h-226.5c-4.5,0-9-1.8-12.5-5.1-7.4-7-7.7-18.7-.8-26.1,32.4-32.3,80.1-79.8,80.1-79.8h0Z"/>
      <path class="st4" d="M4683.4,444.1c-.1-64.7-.3-129.3-.4-194h0c0-26.7-21.7-48.4-48.4-48.4h0c-26.8,0-48.4-21.8-48.4-48.6h0c0-26.7,21.8-48.4,48.5-48.3h0c26.8,0,48.5-21.7,48.5-48.5V-40.8c0-26.8-21.7-48.5-48.5-48.5h0c-26.7,0-48.3-21.7-48.3-48.4h0c0-26.8-21.7-48.5-48.5-48.5h-291.3c-26.8,0-48.5,21.7-48.5,48.5h0v679.2h0c0,26.8,21.7,48.5,48.5,48.5h290.6c26.8,0,48.5-21.7,48.5-48.5s0-.3,0-.5l.4.4c0-26.1,20.7-47.4,46.5-48.5h1.8c10.1,0,19.4-3.1,27.2-8.3,13-8.7,21.5-23.5,21.5-40.3s0,0,0,0h0l.3-.2ZM4586.4-41V56c0,26.7-21.8,48.4-48.5,48.3h-97.2c-32.3,0-64.6.2-96.9.3-25,0-45.5-18.8-48.2-43.1V-44.6c1.9-25.1,22.9-44.9,48.6-44.8h194.1c26.7,0,48.3,21.7,48.3,48.4h-.2ZM4537.5,492.8h-193.6c-26.7,0-48.3-21.5-48.5-48.2v-194.7c0-26.6,21.7-48.1,48.3-48.2h0c64.7,0,129.3-.2,193.9-.3,26.8,0,48.4,21.8,48.3,48.6h0c0,.2,0,0,0,0h0c0,45.8.2,195.8.3,196.6-1.4,25.6-22.6,45.8-48.5,45.8h.1c-.1,0-.3,0-.4,0v.3Z"/>
      <path class="st4" d="M5061-323h0c-18.7,0-33.9-15.1-33.9-33.9s15.2-33.8,33.9-33.8h0c18.8,0,34-15.2,34-34s-15.2-34-34-34-33.9,15.2-34,33.9h0c0,18.7-15.2,33.9-33.9,33.9h-90.7c-.6,0-1.2,0-1.7,0-2.6-.4-5.2-1.6-7.2-3.7-.9-.9-1.6-1.9-2.2-2.9h0c-2.1-3.9-2.1-8.6,0-12.5.6-1,1.3-2,2.2-2.9,10.9-10.9,32.5-32.5,55.6-55.7,24.4-24.4,50.7-50.7,68.1-68.1h0c6.2-6.1,10-14.6,10-24,0-18.8-15.2-34-34-34s-17.9,3.8-24,9.9h0c-22.7,22.7-45.3,45.3-68,67.9h0c-22.6,22.7-45.2,45.3-67.9,68-34,34,0,0,0,0h0c-6.1,6.1-9.9,14.6-9.9,24s0,.2,0,.2v67.7h0c0,18.7,15.2,33.9,33.9,34h0c34,0,68,0,68,0h67.9c18.7,0,33.9,15.2,33.9,33.9v67.9c0,18.8,15.2,34,34,34s34-15.2,34-34v-67.9c0-18.8-15.2-34-34-34h0Z"/>
      <path class="st4" d="M4721.5-595.3c-18.8,0-34,15.2-34,34V-221.1c0,18.8,15.2,34,34,34s34-15.2,34-34v-340.2c0-18.8-15.2-34-34-34Z"/>
    </g>
  </g>
  <g id="Special_Formats">
    <rect id="Neon" class="st7" x="5135" y="-925" width="2000" height="2000"/>
    <rect id="Electric" class="st8" x="5135" y="-925" width="2000" height="2000"/>
    <g id="Lab14_Positive1">
      <path class="st4" d="M5673.7,354.2h-139.8c-19.3,0-35-15.6-35-35V-100.2h0c0-19.3-15.6-35-35-35s-34.9,15.6-35,34.9h0V-30.4h0v419.4c0,19.3,15.6,35,35,35h209.7c19.3,0,35-15.6,35-35s-15.6-35-35-35v.2Z"/>
      <path class="st4" d="M6128.4-100.4h0c-.2-19.1-15.7-34.6-34.9-34.6h-139.7c-35,0-19.5,4.4-25.9,11.5-24.7,24.6-103.6,103.3-138.6,138.2h0c-6.4,6.3-10.3,15.1-10.3,24.8v349.6c0,35,15.6,35,35,35s35-15.6,35-35v-210.6c.5-18.9,15.9-34,34.9-34h139.8c.1,0,0,0,0,0h0c18.6,0,33.8,14.4,35.2,32.6,0,24.7.2,189.2.3,212.1h0c0,19.3,15.7,34.9,35,34.9s35-15.6,35-35h0c0-13.5-.6-466.8-.6-489.5h-.2ZM5908.6-5.5c29.5-29.4,34.1-34,55.8-55.6,2.5-2.5,5.9-3.9,9.4-3.9l50.1.2c19.1,0,34.6,15.4,34.7,34.5h0V39.8c-.2,19.2-15.8,34.7-35.1,34.7h-163.2c-3.2,0-6.5-1.3-9-3.7-5.3-5.1-5.6-13.5-.6-18.8,23.3-23.3,57.7-57.5,57.7-57.5h.2Z"/>
      <path class="st4" d="M6544.5,319.1c0-46.6-.2-93.2-.3-139.8h0c0-19.2-15.6-34.8-34.9-34.9h0c-19.3,0-34.9-15.7-34.8-35h0c0-19.3,15.7-34.8,34.9-34.8h0c19.3,0,35-15.6,35-35V-30.3c0-19.3-15.6-34.9-34.9-35h0c-19.2,0-34.8-15.6-34.8-34.9h0c0-19.3-15.6-34.9-34.9-35h-209.8c-19.3,0-35,15.6-35,35h0v489.4h0c0,19.3,15.6,34.9,34.9,35h209.4c19.3,0,35-15.6,35-35s0-.2,0-.3l.3.3c0-18.8,14.9-34.2,33.5-34.9h1.3c7.3,0,14-2.2,19.6-6,9.3-6.3,15.5-16.9,15.5-29s0,0,0,0h0v-.2ZM6474.6-30.3V39.6c0,19.3-15.7,34.8-34.9,34.8h-70c-23.3,0-46.5,0-69.8.2-18,0-32.8-13.6-34.8-31V-32.9c1.4-18.1,16.5-32.3,35-32.3h139.8c19.2,0,34.8,15.6,34.8,34.9h-.1ZM6439.4,354.2h-139.5c-19.2,0-34.8-15.5-35-34.7v-140.2c0-19.2,15.6-34.7,34.8-34.7h0c46.6,0,93.2-.1,139.7-.2,19.3,0,34.9,15.7,34.8,35h0c0,33,.2,141,.2,141.7-1,18.4-16.2,33-34.9,33h-.3.2Z"/>
      <path class="st4" d="M6816.5-233.5h0c-13.5,0-24.4-10.9-24.4-24.4s11-24.4,24.4-24.4h0c13.5,0,24.5-11,24.5-24.5s-11-24.5-24.5-24.5-24.5,10.9-24.5,24.4h0c0,13.5-11,24.4-24.4,24.4h-65.3c-.4,0-.8,0-1.3,0-1.9-.3-3.7-1.2-5.2-2.6-.6-.6-1.2-1.4-1.6-2.1h0c-1.5-2.8-1.5-6.2,0-9,.4-.8.9-1.5,1.6-2.1,7.9-7.9,23.4-23.4,40.1-40.1,17.6-17.6,36.5-36.5,49.1-49.1h0c4.4-4.4,7.2-10.5,7.2-17.3,0-13.5-11-24.5-24.5-24.5s-12.9,2.7-17.3,7.2h0c-16.3,16.3-32.7,32.6-49,48.9h0c-16.3,16.3-32.6,32.7-48.9,49-24.5,24.5,0,0,0,0h0c-4.4,4.4-7.2,10.5-7.2,17.3s0,0,0,.2v48.7h0c0,13.5,10.9,24.4,24.4,24.5h97.9c13.5,0,24.4,10.9,24.4,24.4v48.9c0,13.5,11,24.5,24.5,24.5s24.5-11,24.5-24.5v-48.9c0-13.5-11-24.5-24.5-24.5v.2Z"/>
      <path class="st4" d="M6571.9-429.6c-13.5,0-24.5,11-24.5,24.5v245.1c0,13.5,11,24.5,24.5,24.5s24.5-11,24.5-24.5v-245.1c0-13.5-11-24.5-24.5-24.5h0Z"/>
    </g>
  </g>
  <g id="Logo_Sonderformat">
    <rect id="Circuit1" class="st5" x="7155" y="-925" width="2000" height="2000"/>
    <circle class="st1" cx="8155" cy="75" r="1000"/>
    <g id="Lab14_Positive2">
      <path class="st4" d="M7803.8,286.8h-106.4c-14.7,0-26.6-11.9-26.6-26.6V-59.1h0c0-14.7-11.9-26.6-26.6-26.6s-26.6,11.9-26.6,26.6h0V-5.9h0v319.3c0,14.7,11.9,26.6,26.6,26.6h159.7c14.7,0,26.6-11.9,26.6-26.6s-11.9-26.6-26.6-26.6h-.1Z"/>
      <path class="st4" d="M8150-59.3h0c0-14.6-12-26.3-26.5-26.4h-106.3c-26.6,0-14.9,3.4-19.7,8.8-18.8,18.8-78.9,78.7-105.5,105.2h0c-4.8,4.8-7.8,11.5-7.8,18.9v266.2c0,26.7,11.9,26.6,26.6,26.6s26.6-11.9,26.6-26.6v-160.4c.4-14.4,12.1-25.9,26.6-25.9h106.4c0,0,0,0,0,0h0c14.2,0,25.8,10.9,26.8,24.8,0,18.8.2,144,.2,161.5h0c0,14.7,11.9,26.6,26.6,26.6s26.6-11.9,26.6-26.6h0c0-10.3-.5-355.4-.5-372.7h0ZM7982.6,12.9c22.4-22.4,26-25.9,42.5-42.3,1.9-1.9,4.5-3,7.2-3h38.1c14.5,0,26.4,11.8,26.4,26.4h0v53.4c0,14.6-12,26.5-26.7,26.4h-124.2c-2.5,0-4.9-1-6.8-2.8-4.1-3.9-4.2-10.3-.4-14.3,17.8-17.7,44-43.8,44-43.8h0Z"/>
      <path class="st4" d="M8466.8,260.1c0-35.5-.1-70.9-.2-106.4h0c0-14.7-11.9-26.5-26.5-26.6h0c-14.7,0-26.6-12-26.5-26.7h0c0-14.7,11.9-26.5,26.6-26.5h0c14.7,0,26.6-11.9,26.6-26.6V-5.9c0-14.7-11.9-26.6-26.6-26.6h0c-14.6,0-26.5-11.9-26.5-26.6h0c0-14.7-11.9-26.6-26.6-26.6h-159.8c-14.7,0-26.6,11.9-26.6,26.6h0v212.9h0v159.6h0c0,14.7,11.9,26.6,26.6,26.6h159.4c14.7,0,26.6-11.9,26.6-26.6s0-.2,0-.2l.2.2c0-14.3,11.3-26,25.5-26.6h1c5.5,0,10.6-1.7,14.9-4.6,7.1-4.8,11.8-12.9,11.8-22.1s0,0,0,0h0ZM8413.5-6v53.2c0,14.7-11.9,26.5-26.6,26.5h-53.3c-17.7,0-35.5,0-53.2.2-13.7,0-25-10.3-26.5-23.6V-7.9c1.1-13.8,12.6-24.6,26.6-24.6h106.4c14.6,0,26.5,11.9,26.5,26.6h0ZM8386.7,286.8h-106.2c-14.6,0-26.5-11.8-26.6-26.4v-106.8c0-14.6,11.9-26.4,26.5-26.4h0c35.5,0,70.9,0,106.4-.2,14.7,0,26.6,12,26.5,26.7h0c0,25.1,0,107.4.2,107.9-.8,14-12.4,25.1-26.6,25.1h-.2Z"/>
      <path class="st4" d="M8673.9-160.7h0c-10.3,0-18.6-8.3-18.6-18.6s8.3-18.6,18.6-18.6h0c10.3,0,18.6-8.3,18.6-18.6s-8.3-18.6-18.6-18.6-18.6,8.3-18.6,18.6h0c0,10.3-8.3,18.6-18.6,18.6h-50.7c-1.4-.2-2.8-.9-4-2-.5-.5-.9-1-1.2-1.6h0c-1.2-2.1-1.2-4.7,0-6.9.3-.6.7-1.1,1.2-1.6,6-6,17.8-17.8,30.5-30.5,13.4-13.4,27.8-27.8,37.4-37.4h0c3.4-3.4,5.5-8,5.5-13.2,0-10.3-8.3-18.6-18.6-18.6s-9.8,2.1-13.2,5.4h0c-12.4,12.4-24.8,24.8-37.3,37.3h0c-12.4,12.4-24.8,24.8-37.2,37.3-18.6,18.7,0,0,0,0h0c-3.4,3.4-5.4,8-5.4,13.2s0,0,0,0v37.1h0c0,10.3,8.3,18.6,18.6,18.6h74.6c10.3,0,18.6,8.3,18.6,18.6v37.2c0,10.3,8.3,18.6,18.6,18.6s18.6-8.3,18.6-18.6v-37.3c0-10.3-8.3-18.6-18.6-18.6h-.2Z"/>
      <path class="st4" d="M8487.6-310c-10.3,0-18.6,8.3-18.6,18.6V-104.8c0,10.3,8.3,18.6,18.6,18.6s18.6-8.3,18.6-18.6v-186.6c0-10.3-8.3-18.6-18.6-18.6Z"/>
    </g>
  </g>
</svg>