<?xml version="1.0" encoding="UTF-8" standalone="no"?>
<!-- Created with Inkscape (http://www.inkscape.org/) -->

<svg
   xmlns:dc="http://purl.org/dc/elements/1.1/"
   xmlns:cc="http://creativecommons.org/ns#"
   xmlns:rdf="http://www.w3.org/1999/02/22-rdf-syntax-ns#"
   xmlns:svg="http://www.w3.org/2000/svg"
   xmlns="http://www.w3.org/2000/svg"
   xmlns:sodipodi="http://sodipodi.sourceforge.net/DTD/sodipodi-0.dtd"
   xmlns:inkscape="http://www.inkscape.org/namespaces/inkscape"
   width="176.43192"
   height="26.807079"
   viewBox="0 0 46.680946 7.0927063"
   version="1.1"
   id="svg27209"
   inkscape:version="0.92.4 (5da689c313, 2019-01-14)"
   sodipodi:docname="nanosurf.svg">
  <defs
     id="defs27203" />
  <sodipodi:namedview
     id="base"
     pagecolor="#ffffff"
     bordercolor="#666666"
     borderopacity="1.0"
     inkscape:pageopacity="0.0"
     inkscape:pageshadow="2"
     inkscape:zoom="8.3337172"
     inkscape:cx="87.715959"
     inkscape:cy="12.903542"
     inkscape:document-units="mm"
     inkscape:current-layer="layer1"
     showgrid="false"
     fit-margin-top="0"
     fit-margin-left="0"
     fit-margin-right="0"
     fit-margin-bottom="0"
     units="px"
     inkscape:window-width="1920"
     inkscape:window-height="1001"
     inkscape:window-x="-9"
     inkscape:window-y="-9"
     inkscape:window-maximized="1" />
  <metadata
     id="metadata27206">
    <rdf:RDF>
      <cc:Work
         rdf:about="">
        <dc:format>image/svg+xml</dc:format>
        <dc:type
           rdf:resource="http://purl.org/dc/dcmitype/StillImage" />
        <dc:title></dc:title>
      </cc:Work>
    </rdf:RDF>
  </metadata>
  <g
     inkscape:label="Layer 1"
     inkscape:groupmode="layer"
     id="layer1"
     transform="translate(133.57723,-321.2916)">
    <g
       id="g27482"
       transform="translate(0.13229103,-0.1322851)">
      <path
         style="fill:#000000;stroke-width:0.26458332"
         inkscape:connector-curvature="0"
         class="st4"
         d="m -114.91444,328.28692 h -0.66541 v -2.36939 c 0,-0.8818 -0.32188,-1.3227 -0.96565,-1.3227 -0.33271,0 -0.608,0.12516 -0.82574,0.37524 -0.21775,0.25033 -0.32656,0.56607 -0.32656,0.94746 v 2.36939 h -0.66541 v -4.15463 h 0.66541 v 0.68975 h 0.0162 c 0.31377,-0.52475 0.7682,-0.78713 1.36328,-0.78713 0.45442,0 0.80201,0.14681 1.04275,0.44017 0.24073,0.2936 0.3611,0.71754 0.3611,1.27205 z"
         id="path27228" />
      <path
         style="fill:#000000;stroke-width:0.26458332"
         inkscape:connector-curvature="0"
         class="st4"
         d="m -110.79522,328.28692 h -0.66541 v -0.64918 h -0.0162 c -0.28967,0.4977 -0.71557,0.74655 -1.27819,0.74655 -0.4141,0 -0.73795,-0.10942 -0.97193,-0.32852 -0.23398,-0.2191 -0.3509,-0.51 -0.3509,-0.87246 0,-0.77631 0.45713,-1.22803 1.37151,-1.35504 l 1.24574,-0.17447 c 0,-0.70598 -0.28573,-1.05897 -0.85623,-1.05897 -0.50065,0 -0.95213,0.17041 -1.35528,0.51123 v -0.68164 c 0.40856,-0.25967 0.87922,-0.38951 1.41184,-0.38951 0.97672,0 1.46509,0.51664 1.46509,1.54992 v 2.70209 z m -0.66541,-2.10172 -1.00229,0.13795 c -0.30836,0.0433 -0.54099,0.11975 -0.69787,0.22918 -0.15689,0.10967 -0.23545,0.30369 -0.23545,0.58229 0,0.20287 0.0722,0.36861 0.21725,0.49697 0.14459,0.12861 0.33738,0.19279 0.57787,0.19279 0.33,0 0.60246,-0.11558 0.81787,-0.34697 0.21492,-0.23115 0.32262,-0.52401 0.32262,-0.87836 z"
         id="path27230" />
      <path
         style="fill:#000000;stroke-width:0.26458332"
         inkscape:connector-curvature="0"
         class="st4"
         d="m -106.2003,328.28692 h -0.66541 v -2.36939 c 0,-0.8818 -0.32189,-1.3227 -0.96566,-1.3227 -0.3327,0 -0.60786,0.12516 -0.82574,0.37524 -0.21762,0.25033 -0.32655,0.56607 -0.32655,0.94746 v 2.36939 h -0.66541 v -4.15463 h 0.66541 v 0.68975 h 0.0162 c 0.31377,-0.52475 0.76819,-0.78713 1.36328,-0.78713 0.45442,0 0.80188,0.14681 1.04286,0.44017 0.24049,0.2936 0.36099,0.71754 0.36099,1.27205 v 2.53979 z"
         id="path27232" />
      <path
         style="fill:#000000;stroke-width:0.26458332"
         inkscape:connector-curvature="0"
         class="st4"
         d="m -103.28317,328.3843 c -0.61402,0 -1.10434,-0.19402 -1.47074,-0.5823 -0.36664,-0.38803 -0.54983,-0.9027 -0.54983,-1.54377 0,-0.69774 0.19082,-1.24279 0.57196,-1.635 0.38164,-0.39221 0.89681,-0.58832 1.54599,-0.58832 0.61942,0 1.10287,0.1907 1.45057,0.57209 0.34746,0.3814 0.52131,0.91021 0.52131,1.58631 0,0.66271 -0.18738,1.19361 -0.56188,1.59246 -0.37476,0.3991 -0.87713,0.59853 -1.50738,0.59853 z m 0.0487,-3.78947 c -0.42738,0 -0.76549,0.14545 -1.01434,0.43623 -0.24886,0.29078 -0.37328,0.69172 -0.37328,1.20283 0,0.49229 0.1259,0.88057 0.37721,1.16459 0.2518,0.28401 0.58844,0.4259 1.01041,0.4259 0.43008,0 0.76082,-0.13918 0.99197,-0.41779 0.23139,-0.2786 0.34697,-0.675 0.34697,-1.18893 0,-0.51922 -0.11558,-0.91955 -0.34697,-1.20086 -0.23115,-0.28131 -0.56189,-0.42197 -0.99197,-0.42197 z"
         id="path27234" />
      <path
         style="fill:#000000;stroke-width:0.26458332"
         inkscape:connector-curvature="0"
         class="st4"
         d="m -100.51702,328.13692 v -0.7141 c 0.36246,0.26779 0.761313,0.40156 1.197052,0.40156 0.584261,0 0.87639,-0.19476 0.87639,-0.58427 0,-0.1109 -0.02511,-0.20483 -0.0753,-0.28204 -0.0499,-0.077 -0.117531,-0.14533 -0.202859,-0.20484 -0.0851,-0.0595 -0.185171,-0.11287 -0.300252,-0.16033 -0.114839,-0.0472 -0.23877,-0.0966 -0.371308,-0.14803 -0.183941,-0.073 -0.345501,-0.14656 -0.484672,-0.22106 -0.139431,-0.0743 -0.255741,-0.15836 -0.348941,-0.25156 -0.0934,-0.0933 -0.16377,-0.19943 -0.21098,-0.31844 -0.0475,-0.11902 -0.0711,-0.25832 -0.0711,-0.41791 0,-0.19476 0.0445,-0.36713 0.13401,-0.51738 0.089,-0.15 0.20803,-0.2759 0.35705,-0.37721 0.14853,-0.10156 0.31844,-0.17791 0.509022,-0.22931 0.190818,-0.0514 0.387538,-0.0771 0.59041,-0.0771 0.359749,0 0.68163,0.0622 0.96565,0.18664 v 0.67353 c -0.305652,-0.20017 -0.657291,-0.30025 -1.05492,-0.30025 -0.12442,0 -0.2368,0.0143 -0.336881,0.0425 -0.100079,0.0285 -0.185899,0.0684 -0.257461,0.11975 -0.0718,0.0514 -0.127129,0.113 -0.166468,0.18467 -0.0391,0.0717 -0.0588,0.15074 -0.0588,0.2373 0,0.10819 0.01971,0.19881 0.0588,0.27184 0.0393,0.073 0.0966,0.13795 0.172609,0.19476 0.0755,0.0568 0.16746,0.10819 0.27591,0.15418 0.10795,0.046 0.231151,0.096 0.3691,0.15 0.18393,0.0703 0.348929,0.14287 0.495001,0.21713 0.14606,0.0745 0.270488,0.15811 0.373268,0.25156 0.102791,0.0932 0.18197,0.2009 0.2373,0.32262 0.0556,0.12172 0.0834,0.26631 0.0834,0.43402 0,0.20557 -0.0455,0.38409 -0.135991,0.53557 -0.0907,0.15148 -0.211709,0.27738 -0.363191,0.37746 -0.151468,0.10008 -0.326059,0.17434 -0.523279,0.22303 -0.19771,0.0487 -0.404511,0.073 -0.620901,0.073 -0.427378,0 -0.797948,-0.0824 -1.111718,-0.24738 z"
         id="path27236" />
      <path
         style="fill:#000000;stroke-width:0.26458332"
         inkscape:connector-curvature="0"
         class="st4"
         d="m -93.504148,328.28692 h -0.665419 v -0.65729 h -0.01619 c -0.275899,0.50311 -0.703281,0.75467 -1.282131,0.75467 -0.989999,0 -1.485008,-0.58968 -1.485008,-1.76902 v -2.48299 h 0.661479 v 2.3775 c 0,0.87639 0.335161,1.31459 1.006229,1.31459 0.324591,0 0.59164,-0.11975 0.801151,-0.35902 0.209751,-0.2395 0.31451,-0.55254 0.31451,-0.93934 v -2.39373 h 0.665411 z"
         id="path27238" />
      <path
         style="fill:#000000;stroke-width:0.26458332"
         inkscape:connector-curvature="0"
         class="st4"
         d="m -90.141447,324.80581 c -0.116311,-0.0893 -0.284012,-0.13389 -0.503111,-0.13389 -0.284019,0 -0.521311,0.13389 -0.712139,0.40168 -0.190572,0.26779 -0.28598,0.63295 -0.28598,1.09537 v 2.11795 h -0.665412 v -4.15463 h 0.665412 v 0.85611 h 0.01619 c 0.0947,-0.29214 0.23926,-0.51996 0.43402,-0.68374 0.194749,-0.16352 0.41262,-0.2454 0.653359,-0.2454 0.173109,0 0.30565,0.0189 0.397622,0.0568 v 0.68975 z"
         id="path27240" />
      <path
         style="fill:#000000;stroke-width:0.26458332"
         inkscape:connector-curvature="0"
         class="st4"
         d="m -87.160868,322.72032 c -0.129839,-0.073 -0.277379,-0.10955 -0.44214,-0.10955 -0.46549,0 -0.69786,0.29349 -0.69786,0.88045 v 0.64107 h 0.97377 v 0.56803 h -0.97377 v 3.5866 h -0.66148 v -3.5866 h -0.71016 v -0.56803 h 0.71016 v -0.67352 c 0,-0.4355 0.1259,-0.77964 0.377212,-1.03255 0.251809,-0.25291 0.565329,-0.37942 0.941318,-0.37942 0.20311,0 0.363929,0.0243 0.48295,0.073 z"
         id="path27242" />
      <circle
         style="fill:#000000;stroke-width:0.26458332"
         class="st4"
         cx="-127.8009"
         cy="326.918"
         r="1.4625003"
         id="circle27246" />
      <path
         id="path27248"
         d="m -132.26613,327.10556 c -0.11046,0 -0.22272,-0.0235 -0.32969,-0.0729 -0.39481,-0.18242 -0.56702,-0.65035 -0.38473,-1.04516 0.0434,-0.0938 0.0822,-0.19262 0.11859,-0.30166 0.0366,-0.11033 0.0655,-0.21523 0.088,-0.32001 0.0236,-0.11019 0.04,-0.21187 0.0501,-0.31057 0.0133,-0.12726 0.019,-0.23603 0.0174,-0.3337 -0.001,-0.10051 -0.009,-0.208 -0.0216,-0.32931 -0.0119,-0.11162 -0.0363,-0.2297 -0.0587,-0.33034 -0.0211,-0.0947 -0.0544,-0.19754 -0.0895,-0.30322 -0.0307,-0.092 -0.0718,-0.19158 -0.12583,-0.30398 -0.0388,-0.0807 -0.0884,-0.1704 -0.15568,-0.28137 -0.0558,-0.0924 -0.11653,-0.17868 -0.18073,-0.2571 l -0.061,-0.0744 c -0.27518,-0.3368 -0.22505,-0.83289 0.11175,-1.10807 0.33719,-0.27518 0.83315,-0.22479 1.10807,0.11175 l 0.0606,0.0739 c 0.11072,0.13526 0.21459,0.2828 0.30851,0.43795 0.094,0.15516 0.16666,0.28745 0.22841,0.41574 0.0829,0.17312 0.14831,0.33241 0.20012,0.4877 0.0468,0.14056 0.0955,0.29158 0.13293,0.45966 0.0319,0.14417 0.067,0.31587 0.0871,0.50397 0.0182,0.1695 0.0282,0.32466 0.0304,0.47362 0.002,0.16019 -0.006,0.33034 -0.0256,0.51934 -0.016,0.15491 -0.0411,0.31187 -0.0769,0.47853 -0.0346,0.16188 -0.0784,0.3213 -0.13371,0.48744 -0.0552,0.16562 -0.11498,0.31729 -0.18294,0.46457 -0.13294,0.28784 -0.4178,0.45759 -0.71546,0.45759 z"
         class="st4"
         inkscape:connector-curvature="0"
         style="fill:#000000;stroke-width:0.26458332" />
      <path
         id="path27250"
         d="m -132.78961,328.38094 c -0.0922,0 -0.18603,-0.0163 -0.27737,-0.0509 -0.40708,-0.15322 -0.61276,-0.60746 -0.45954,-1.01441 l 0.0562,-0.15167 c 0.0447,-0.1217 0.0895,-0.24339 0.13875,-0.36303 0.0695,-0.16924 0.14108,-0.33796 0.21381,-0.50617 0.0442,-0.1018 0.0894,-0.20283 0.13553,-0.3036 0.0581,-0.1279 0.12273,-0.25153 0.18836,-0.3753 0.0651,-0.12221 0.13319,-0.2412 0.20502,-0.35824 0.0712,-0.11602 0.14844,-0.23151 0.22854,-0.3421 l 0.0388,-0.0537 c 0.066,-0.0919 0.13268,-0.18345 0.20451,-0.27104 l 0.0404,-0.0495 c 0.0742,-0.0907 0.14909,-0.18138 0.22854,-0.26717 0.081,-0.0875 0.16459,-0.17324 0.24805,-0.25864 l 0.0238,-0.0243 c 0.0774,-0.0791 0.16071,-0.15309 0.24417,-0.22621 l 0.0611,-0.0537 c 0.091,-0.0808 0.185,-0.15516 0.2797,-0.22958 l 0.0324,-0.0254 c 0.11098,-0.0871 0.22402,-0.16911 0.34055,-0.24675 0.11576,-0.0771 0.2319,-0.15154 0.35192,-0.22131 l 0.0802,-0.0465 c 0.004,-0.002 0.008,-0.004 0.0116,-0.007 l 0.047,-0.0264 c 0.0999,-0.0562 0.19999,-0.11227 0.30179,-0.16485 0.1217,-0.0628 0.24379,-0.12506 0.3682,-0.18203 0.11924,-0.0547 0.23887,-0.1093 0.35953,-0.16097 0.0961,-0.0412 0.1934,-0.0796 0.29081,-0.11782 l 0.0798,-0.0314 c 0.13514,-0.0533 0.2726,-0.10464 0.4107,-0.14857 l 0.0627,-0.02 c 0.10542,-0.0337 0.21058,-0.0672 0.31691,-0.0986 0.13306,-0.0394 0.26652,-0.0775 0.40165,-0.11059 0.13036,-0.0319 0.26071,-0.0621 0.39158,-0.0911 0.12041,-0.0269 0.24275,-0.0483 0.36496,-0.0695 l 0.0407,-0.007 c 0.13707,-0.0238 0.27466,-0.0433 0.41212,-0.0612 0.13655,-0.0178 0.27247,-0.0332 0.40928,-0.0452 0.13823,-0.012 0.27272,-0.0234 0.40824,-0.0293 l 0.0756,-0.003 c 0.1071,-0.005 0.21407,-0.01 0.32117,-0.0106 0.13126,-0.001 0.26213,-2.6e-4 0.39313,0.003 l 0.0285,6.5e-4 c 0.12699,0.003 0.25438,0.006 0.38098,0.0146 0.0868,0.006 0.17325,0.0141 0.25968,0.0221 l 0.12661,0.0115 c 0.14327,0.0121 0.28719,0.0288 0.43007,0.0509 l 0.11137,0.0165 c 0.0992,0.0143 0.19843,0.0289 0.29662,0.0482 l 0.0646,0.0127 c 0.10698,0.0208 0.21394,0.0417 0.3204,0.0648 0.13759,0.03 0.27388,0.0632 0.40915,0.0991 l 0.17505,0.0474 c 0.32053,0.0846 0.56328,0.3589 0.60733,0.6895 0.0155,0.11575 0.0243,0.40579 -0.21007,0.66456 -0.0296,0.0331 -0.0623,0.0641 -0.0978,0.0924 -0.0279,0.0221 -0.0568,0.0421 -0.0867,0.0601 -0.11059,0.0696 -0.20335,0.13539 -0.28332,0.20089 -0.10826,0.0886 -0.20141,0.17428 -0.285,0.262 -0.0895,0.094 -0.16937,0.18888 -0.23706,0.28151 -0.0749,0.1027 -0.14121,0.20554 -0.19715,0.30528 -0.0605,0.10787 -0.11407,0.21768 -0.16433,0.33628 l -0.0136,0.0322 c -0.0101,0.0297 -0.0205,0.0594 -0.0318,0.0889 -0.0143,0.0379 -0.0351,0.10465 -0.0522,0.20865 -0.0124,0.0757 -0.0187,0.15503 -0.0187,0.23564 0,0.0402 0.002,0.0797 0.004,0.11976 l 10e-4,0.0324 c 0.001,0.0213 0.006,0.0437 0.009,0.066 l 0.008,0.0558 c 0.005,0.039 0.0186,0.10542 0.0513,0.19715 0.0284,0.0804 0.063,0.15916 0.1027,0.23461 0.0362,0.0687 0.0802,0.13668 0.1301,0.20102 0.0448,0.0574 0.0988,0.11575 0.16472,0.17751 0.0284,0.0266 0.0577,0.0512 0.0881,0.0752 0.0195,0.0155 0.0411,0.03 0.0625,0.045 l 0.0585,0.0411 c 0.0623,0.045 0.1611,0.0894 0.19366,0.10387 0.0589,0.0266 0.13216,0.0514 0.23215,0.0791 0.41949,0.11498 0.66637,0.54803 0.55139,0.96764 -0.11498,0.41936 -0.54919,0.66611 -0.96764,0.55113 -0.11434,-0.0313 -0.28655,-0.0822 -0.46264,-0.16174 -0.18784,-0.0842 -0.33693,-0.16769 -0.46728,-0.26174 l -0.0389,-0.0274 c -0.0466,-0.0326 -0.093,-0.0654 -0.1381,-0.10103 -0.0661,-0.0522 -0.12906,-0.10568 -0.18953,-0.16253 -0.12608,-0.11834 -0.23434,-0.2359 -0.33046,-0.35941 -0.10646,-0.1372 -0.20051,-0.28293 -0.28009,-0.4333 -0.0749,-0.14263 -0.13991,-0.29068 -0.1934,-0.44158 -0.0624,-0.17544 -0.10529,-0.34778 -0.12777,-0.51237 l -0.006,-0.0395 c -0.0107,-0.0739 -0.0204,-0.14819 -0.0238,-0.2226 l -0.001,-0.0304 c -0.003,-0.0646 -0.006,-0.12855 -0.006,-0.19366 0,-0.16588 0.0134,-0.33111 0.0397,-0.49105 0.0307,-0.18733 0.076,-0.36006 0.13436,-0.51341 l 0.0195,-0.0562 c 0.003,-0.0102 0.007,-0.0203 0.0109,-0.0305 0.005,-0.0118 0.009,-0.0234 0.0142,-0.0349 l 0.0214,-0.0509 c 0.0731,-0.17272 0.154,-0.33822 0.24159,-0.49441 0.0862,-0.15413 0.18694,-0.31032 0.29908,-0.46406 0.0192,-0.0265 0.0391,-0.053 0.0596,-0.0795 -0.0453,-0.005 -0.0908,-0.009 -0.13628,-0.0133 l -0.13772,-0.0125 c -0.0748,-0.007 -0.14974,-0.014 -0.2248,-0.0191 -0.10115,-0.007 -0.20308,-0.009 -0.30463,-0.0112 l -0.0283,-6.4e-4 c -0.11369,-0.002 -0.22854,-0.003 -0.34274,-0.002 -0.089,9.1e-4 -0.17777,0.005 -0.26652,0.009 l -0.0789,0.003 c -0.11227,0.005 -0.22402,0.0149 -0.33628,0.0247 -0.11744,0.0102 -0.23138,0.0232 -0.34533,0.0381 -0.11511,0.015 -0.231,0.0311 -0.34585,0.0512 l -0.0413,0.007 c -0.0979,0.0171 -0.19611,0.0337 -0.293,0.0553 -0.12028,0.0267 -0.23952,0.0544 -0.35864,0.0835 -0.11072,0.0271 -0.22014,0.0588 -0.32957,0.0911 -0.0955,0.0282 -0.18952,0.0584 -0.28383,0.0885 l -0.0645,0.0205 c -0.10439,0.0332 -0.20774,0.0724 -0.30929,0.1124 l -0.0835,0.0329 c -0.0823,0.0323 -0.16458,0.0645 -0.24598,0.0993 -0.10864,0.0465 -0.21613,0.0957 -0.32349,0.14495 -0.10219,0.0469 -0.20257,0.0986 -0.30244,0.15012 -0.0849,0.0437 -0.16807,0.0908 -0.25141,0.13759 l -0.11911,0.0683 c -0.0931,0.0541 -0.1819,0.1115 -0.27066,0.17066 -0.0826,0.055 -0.16278,0.1133 -0.24094,0.17467 l -0.0329,0.0258 c -0.0698,0.0546 -0.1394,0.10878 -0.2058,0.16782 l -0.0704,0.0619 c -0.0526,0.046 -0.10607,0.0917 -0.15464,0.14147 l -0.0239,0.0245 c -0.0736,0.0753 -0.14767,0.15077 -0.21924,0.22815 -0.0575,0.0621 -0.11097,0.12816 -0.16446,0.19366 l -0.043,0.0526 c -0.0501,0.061 -0.0961,0.12596 -0.14263,0.19056 l -0.0421,0.0585 c -0.0566,0.078 -0.11111,0.15942 -0.16149,0.24159 -0.0552,0.0899 -0.10723,0.18112 -0.15671,0.27388 -0.0501,0.0943 -0.10064,0.18966 -0.1456,0.28836 -2.6e-4,7.7e-4 -6.4e-4,0.002 -9e-4,0.002 -0.0419,0.0915 -0.0829,0.18267 -0.12287,0.27491 -0.0687,0.15865 -0.13642,0.31833 -0.20218,0.47853 -0.0417,0.10128 -0.0793,0.20438 -0.11705,0.30721 l -0.0607,0.16407 c -0.11886,0.31575 -0.41871,0.51031 -0.73717,0.51031 z"
         class="st4"
         inkscape:connector-curvature="0"
         style="fill:#000000;stroke-width:0.26458332" />
      <path
         id="path27252"
         d="M -132.78739,327.59134"
         class="st4"
         inkscape:connector-curvature="0"
         style="fill:#000000;stroke-width:0.26458332" />
      <path
         id="path27254"
         d="M -132.78739,322.34135"
         class="st4"
         inkscape:connector-curvature="0"
         style="fill:#000000;stroke-width:0.26458332" />
      <path
         id="path27256"
         d="M -122.2874,327.59135"
         class="st4"
         inkscape:connector-curvature="0"
         style="fill:#000000;stroke-width:0.26458332" />
      <path
         id="path27258"
         d="M -132.78739,327.59135"
         class="st4"
         inkscape:connector-curvature="0"
         style="fill:#000000;stroke-width:0.26458332" />
    </g>
  </g>
</svg>
