<?xml version="1.0" encoding="UTF-8" standalone="no"?>
<!-- Created with Inkscape (http://www.inkscape.org/) -->

<svg
   xmlns:dc="http://purl.org/dc/elements/1.1/"
   xmlns:cc="http://creativecommons.org/ns#"
   xmlns:rdf="http://www.w3.org/1999/02/22-rdf-syntax-ns#"
   xmlns:svg="http://www.w3.org/2000/svg"
   xmlns="http://www.w3.org/2000/svg"
   xmlns:sodipodi="http://sodipodi.sourceforge.net/DTD/sodipodi-0.dtd"
   xmlns:inkscape="http://www.inkscape.org/namespaces/inkscape"
   width="109.37866mm"
   height="33.49921mm"
   viewBox="0 0 109.37866 33.49921"
   version="1.1"
   id="svg50064"
   inkscape:version="0.92.4 (5da689c313, 2019-01-14)"
   sodipodi:docname="onto innovation.svg">
  <defs
     id="defs50058" />
  <sodipodi:namedview
     id="base"
     pagecolor="#ffffff"
     bordercolor="#666666"
     borderopacity="1.0"
     inkscape:pageopacity="0.0"
     inkscape:pageshadow="2"
     inkscape:zoom="3.4885981"
     inkscape:cx="204.81006"
     inkscape:cy="61.415834"
     inkscape:document-units="mm"
     inkscape:current-layer="layer1"
     showgrid="false"
     fit-margin-top="0"
     fit-margin-left="0"
     fit-margin-right="0"
     fit-margin-bottom="0"
     inkscape:window-width="1920"
     inkscape:window-height="1001"
     inkscape:window-x="-9"
     inkscape:window-y="-9"
     inkscape:window-maximized="1" />
  <metadata
     id="metadata50061">
    <rdf:RDF>
      <cc:Work
         rdf:about="">
        <dc:format>image/svg+xml</dc:format>
        <dc:type
           rdf:resource="http://purl.org/dc/dcmitype/StillImage" />
        <dc:title></dc:title>
      </cc:Work>
    </rdf:RDF>
  </metadata>
  <g
     inkscape:label="Layer 1"
     inkscape:groupmode="layer"
     id="layer1"
     transform="translate(81.40362,-131.58373)">
    <g
       transform="translate(231.25833,-277.51272)"
       id="g50033"
       style="fill:#ff002b;fill-opacity:1">
      <path
         style="fill:#ff002b;fill-opacity:1;stroke-width:0.26458332"
         inkscape:connector-curvature="0"
         d="m -249.82872,409.59689 a 0.52916666,0.52916666 0 0 0 -0.36513,0.14288 0.46302083,0.46302083 0 0 0 -0.15346,0.34925 0.45508333,0.45508333 0 0 0 0.15346,0.34925 0.52916666,0.52916666 0 0 0 0.73025,0 0.45508333,0.45508333 0 0 0 0.15346,-0.34925 0.46302083,0.46302083 0 0 0 -0.15346,-0.34925 0.51064583,0.51064583 0 0 0 -0.36512,-0.14288 z"
         id="path49930" />
      <rect
         style="fill:#ff002b;fill-opacity:1;stroke-width:0.26458332"
         x="-250.19914"
         y="411.37488"
         width="0.72760415"
         height="4.7413335"
         id="rect49932" />
      <path
         style="fill:#ff002b;fill-opacity:1;stroke-width:0.26458332"
         inkscape:connector-curvature="0"
         d="m -244.91806,411.50718 a 1.7594791,1.7594791 0 0 0 -0.84402,-0.19579 1.5689791,1.5689791 0 0 0 -0.87577,0.22225 1.3520208,1.3520208 0 0 0 -0.508,0.58209 h -0.0609 v -0.74084 h -0.70379 v 4.74134 h 0.7276 v -2.85221 a 1.4419791,1.4419791 0 0 1 0.15875,-0.70379 1.0847917,1.0847917 0 0 1 0.43127,-0.44186 1.2567708,1.2567708 0 0 1 0.62177,-0.15081 1.031875,1.031875 0 0 1 0.79375,0.31221 1.23825,1.23825 0 0 1 0.2884,0.87312 v 2.96334 h 0.73025 v -3.01361 a 2.2330833,2.2330833 0 0 0 -0.20109,-1.00277 1.3546666,1.3546666 0 0 0 -0.55827,-0.59267 z"
         id="path49934" />
      <path
         style="fill:#ff002b;fill-opacity:1;stroke-width:0.26458332"
         inkscape:connector-curvature="0"
         d="m -239.70047,411.50718 a 1.7594791,1.7594791 0 0 0 -0.84402,-0.19579 1.5689791,1.5689791 0 0 0 -0.87578,0.22225 1.3520208,1.3520208 0 0 0 -0.508,0.58209 h -0.0609 v -0.74084 h -0.70379 v 4.74134 h 0.74083 v -2.85221 a 1.4419791,1.4419791 0 0 1 0.15875,-0.70379 1.0847917,1.0847917 0 0 1 0.43127,-0.44186 1.2567708,1.2567708 0 0 1 0.62177,-0.15081 1.031875,1.031875 0 0 1 0.79375,0.31221 1.23825,1.23825 0 0 1 0.2884,0.87312 v 2.96334 h 0.73025 v -3.01361 a 2.1960416,2.1960416 0 0 0 -0.20108,-1.00277 1.3546666,1.3546666 0 0 0 -0.5715,-0.59267 z"
         id="path49936" />
      <path
         style="fill:#ff002b;fill-opacity:1;stroke-width:0.26458332"
         inkscape:connector-curvature="0"
         d="m -234.51993,411.61831 a 2.079625,2.079625 0 0 0 -3.00302,0.85725 2.9104166,2.9104166 0 0 0 -0.26459,1.29381 2.873375,2.873375 0 0 0 0.26459,1.28323 2.079625,2.079625 0 0 0 3.75708,0 2.873375,2.873375 0 0 0 0.26458,-1.28323 2.9104166,2.9104166 0 0 0 -0.26458,-1.29381 2.0558125,2.0558125 0 0 0 -0.75406,-0.85725 z m 0.14552,3.03477 a 1.4896041,1.4896041 0 0 1 -0.46831,0.65617 1.4049375,1.4049375 0 0 1 -1.60338,0 1.4896041,1.4896041 0 0 1 -0.47889,-0.64294 2.5294166,2.5294166 0 0 1 -0.15082,-0.88371 2.555875,2.555875 0 0 1 0.15082,-0.88635 1.5134166,1.5134166 0 0 1 0.46831,-0.66411 1.4049375,1.4049375 0 0 1 1.60337,0 1.5134166,1.5134166 0 0 1 0.46832,0.66411 2.555875,2.555875 0 0 1 0.15081,0.88635 2.5294166,2.5294166 0 0 1 -0.14023,0.88371 z"
         id="path49938" />
      <polygon
         transform="matrix(0.26458333,0,0,0.26458333,-312.15133,409.59689)"
         points="315.61,6.72 312.62,6.72 307.68,21 307.49,21 302.54,6.72 299.56,6.72 306.18,24.64 308.98,24.64 "
         id="polygon49940"
         style="fill:#ff002b;fill-opacity:1" />
      <path
         style="fill:#ff002b;fill-opacity:1;stroke-width:0.26458332"
         inkscape:connector-curvature="0"
         d="m -224.89968,411.58656 a 1.6880416,1.6880416 0 0 0 -0.57944,-0.21961 2.9104166,2.9104166 0 0 0 -0.52917,-0.0556 2.778125,2.778125 0 0 0 -0.72496,0.0979 1.8520833,1.8520833 0 0 0 -0.66675,0.3466 1.6748125,1.6748125 0 0 0 -0.49477,0.67469 l 0.69057,0.24871 a 1.3361458,1.3361458 0 0 1 0.41804,-0.48948 1.3229166,1.3229166 0 0 1 0.81756,-0.22754 1.0080625,1.0080625 0 0 1 0.75142,0.26458 0.96043749,0.96043749 0 0 1 0.24871,0.70908 v 0.0238 a 0.26458333,0.26458333 0 0 1 -0.12436,0.2487 1.0742083,1.0742083 0 0 1 -0.39687,0.0979 l -0.70115,0.0873 c -0.2196,0.0291 -0.43921,0.0661 -0.65617,0.11377 a 2.3442083,2.3442083 0 0 0 -0.59531,0.21961 1.1509375,1.1509375 0 0 0 -0.42862,0.39952 1.2303125,1.2303125 0 0 0 -0.1614,0.66146 1.3467291,1.3467291 0 0 0 0.79375,1.28587 1.9076458,1.9076458 0 0 0 0.81756,0.17198 1.7859375,1.7859375 0 0 0 0.70115,-0.12435 1.4605,1.4605 0 0 0 0.46037,-0.29898 1.3229166,1.3229166 0 0 0 0.24607,-0.33073 h 0.037 v 0.64294 h 0.7276 v -3.14325 a 1.8679583,1.8679583 0 0 0 -0.18521,-0.90223 1.2779375,1.2779375 0 0 0 -0.46566,-0.50271 z m -0.0794,2.81252 a 1.1006667,1.1006667 0 0 1 -0.15346,0.56356 1.158875,1.158875 0 0 1 -0.44979,0.43921 1.4472708,1.4472708 0 0 1 -0.73025,0.16933 1.2329583,1.2329583 0 0 1 -0.71702,-0.19314 0.64029166,0.64029166 0 0 1 -0.2831,-0.5715 0.62970833,0.62970833 0 0 1 0.14816,-0.43921 0.91016666,0.91016666 0 0 1 0.39688,-0.24342 2.6722916,2.6722916 0 0 1 0.52917,-0.11906 l 0.30691,-0.0397 0.39159,-0.0556 a 3.0744583,3.0744583 0 0 0 0.35718,-0.0767 0.42068749,0.42068749 0 0 0 0.20373,-0.10054 z"
         id="path49942" />
      <path
         style="fill:#ff002b;fill-opacity:1;stroke-width:0.26458332"
         inkscape:connector-curvature="0"
         d="m -220.90977,415.46006 a 1.3229166,1.3229166 0 0 1 -0.19843,0.0132 0.89429166,0.89429166 0 0 1 -0.30427,-0.0503 0.45243749,0.45243749 0 0 1 -0.23284,-0.20373 0.92604165,0.92604165 0 0 1 -0.0926,-0.46302 v -2.7649 h 1.01335 v -0.61648 h -1.01335 v -1.13771 h -0.72761 v 1.13771 h -0.71702 v 0.61648 h 0.71702 v 2.96333 a 1.1456458,1.1456458 0 0 0 0.19315,0.68528 1.1826875,1.1826875 0 0 0 0.48683,0.40481 1.4684375,1.4684375 0 0 0 0.60325,0.13229 1.6483541,1.6483541 0 0 0 0.33602,-0.0291 1.4499166,1.4499166 0 0 0 0.20902,-0.0582 l -0.14816,-0.65352 z"
         id="path49944" />
      <path
         style="fill:#ff002b;fill-opacity:1;stroke-width:0.26458332"
         inkscape:connector-curvature="0"
         d="m -218.83808,409.59689 a 0.51064583,0.51064583 0 0 0 -0.36512,0.14288 0.46302083,0.46302083 0 0 0 -0.15346,0.34925 0.45508333,0.45508333 0 0 0 0.15875,0.34396 0.52916666,0.52916666 0 0 0 0.73025,0 0.45508333,0.45508333 0 0 0 0.15346,-0.34925 0.46302083,0.46302083 0 0 0 -0.15346,-0.34925 0.51064583,0.51064583 0 0 0 -0.37042,-0.13759 z"
         id="path49946" />
      <rect
         style="fill:#ff002b;fill-opacity:1;stroke-width:0.26458332"
         x="-219.2085"
         y="411.37488"
         width="0.72760415"
         height="4.7413335"
         id="rect49948" />
      <path
         style="fill:#ff002b;fill-opacity:1;stroke-width:0.26458332"
         inkscape:connector-curvature="0"
         d="m -213.98827,411.61831 a 2.0769791,2.0769791 0 0 0 -3.00302,0.85725 2.9104166,2.9104166 0 0 0 -0.26458,1.29381 2.873375,2.873375 0 0 0 0.26458,1.28323 2.079625,2.079625 0 0 0 3.75709,0 2.873375,2.873375 0 0 0 0.26458,-1.28323 2.9104166,2.9104166 0 0 0 -0.26458,-1.29381 2.0558125,2.0558125 0 0 0 -0.75407,-0.85725 z m 0.14288,3.03477 a 1.4843125,1.4843125 0 0 1 -0.46567,0.65617 1.2461875,1.2461875 0 0 1 -0.79375,0.25135 1.2594167,1.2594167 0 0 1 -0.79375,-0.25135 1.4843125,1.4843125 0 0 1 -0.46566,-0.65617 2.5294166,2.5294166 0 0 1 -0.15082,-0.88371 2.555875,2.555875 0 0 1 0.15082,-0.88635 1.508125,1.508125 0 0 1 0.46566,-0.66411 1.2594167,1.2594167 0 0 1 0.79375,-0.25135 1.2461875,1.2461875 0 0 1 0.79375,0.25135 1.508125,1.508125 0 0 1 0.46567,0.66411 2.555875,2.555875 0 0 1 0.15081,0.88635 2.5294166,2.5294166 0 0 1 -0.15081,0.89694 z"
         id="path49950" />
      <path
         style="fill:#ff002b;fill-opacity:1;stroke-width:0.26458332"
         inkscape:connector-curvature="0"
         d="m -208.2177,412.09985 a 1.3546666,1.3546666 0 0 0 -0.56092,-0.59267 1.7594791,1.7594791 0 0 0 -0.84402,-0.19579 1.5689791,1.5689791 0 0 0 -0.87577,0.22225 1.3520208,1.3520208 0 0 0 -0.508,0.58209 h -0.0609 v -0.74084 h -0.70379 v 4.74134 h 0.72761 v -2.85221 a 1.4419791,1.4419791 0 0 1 0.15875,-0.70379 1.0847917,1.0847917 0 0 1 0.43127,-0.44186 1.2567708,1.2567708 0 0 1 0.62177,-0.15081 1.031875,1.031875 0 0 1 0.79375,0.31221 1.23825,1.23825 0 0 1 0.28839,0.87312 v 2.96334 h 0.73025 v -3.01361 a 2.2330833,2.2330833 0 0 0 -0.19843,-1.00277 z"
         id="path49952" />
      <path
         style="fill:#ff002b;fill-opacity:1;stroke-width:0.26458332"
         inkscape:connector-curvature="0"
         d="m -206.70958,414.76156 a 1.4631458,1.4631458 0 1 1 1.46315,1.46579 1.4631458,1.4631458 0 0 1 -1.46315,-1.46579 z m 2.57704,0 a 1.1138958,1.1138958 0 1 0 -1.11389,1.11389 1.1138958,1.1138958 0 0 0 1.11389,-1.11389 z m -1.62454,-0.69056 h 0.68263 a 0.42862499,0.42862499 0 0 1 0.41275,0.43127 0.45772916,0.45772916 0 0 1 -0.21961,0.39687 l 0.26459,0.52917 h -0.32544 l -0.23548,-0.45508 h -0.29369 v 0.45508 h -0.28575 z m 0.58208,0.67468 a 0.22754166,0.22754166 0 0 0 0.20109,-0.24341 0.19579166,0.19579166 0 0 0 -0.19315,-0.21167 h -0.28046 v 0.45508 z"
         id="path49954" />
      <path
         style="fill:#ff002b;fill-opacity:1;stroke-width:0.26458332"
         inkscape:connector-curvature="0"
         d="m -239.96506,421.36291 a 10.366375,10.366375 0 1 0 10.36638,10.36638 10.376958,10.376958 0 0 0 -10.36638,-10.36638 z m 0,14.67644 a 4.3100624,4.3100624 0 1 1 4.31007,-4.31006 4.3153541,4.3153541 0 0 1 -4.31007,4.31006 z m -61.81989,-14.67644 h -0.0265 a 10.366375,10.366375 0 1 0 10.38225,10.36638 v 0 a 10.376958,10.376958 0 0 0 -10.35579,-10.36638 z m 0,14.67644 a 4.3100828,4.3100828 0 0 1 -0.0265,-8.62012 h 0.0265 a 4.3127083,4.3127083 0 0 1 4.31006,4.30212 v 0 a 4.3153541,4.3153541 0 0 1 -4.31006,4.318 z m 32.93798,-4.06665 v 9.92188 h -6.05367 v -9.91394 a 4.3179999,4.3179999 0 0 0 -4.31271,-4.30477 h -3.21998 v 14.21871 h -6.05102 V 421.6222 h 9.26042 a 10.376958,10.376958 0 0 1 10.36637,10.3505 z m 16.31156,-9.31597 v 5.02708 h -13.03602 v -6.06161 l 6.05631,-3.06122 v 4.09575 z m 0,13.38262 v 6.05631 h -2.66965 a 10.376958,10.376958 0 0 1 -10.36373,-10.35314 v 0 -1.99496 h 6.05632 v 1.99231 a 4.3153541,4.3153541 0 0 0 4.31006,4.30213 z"
         id="path49958" />
    </g>
  </g>
</svg>
