<?xml version="1.0" encoding="UTF-8"?>
<svg width="800px" height="230px" viewBox="0 0 800 230" version="1.1" xmlns="http://www.w3.org/2000/svg" xmlns:xlink="http://www.w3.org/1999/xlink">
    <title>SiStem Technology Logo - Colour@2x</title>
    <g id="SiStem-Technology-Logo---Colour" stroke="none" stroke-width="1" fill="none" fill-rule="evenodd">
        <path d="M122.426961,5.68434189e-14 L122.426961,14.82409 L106.978581,14.82409 L106.978275,30.7549964 L122.427674,30.7549964 L122.427674,14.8238863 L137.733475,14.8238863 L137.733475,121.87895 L122.427674,121.87895 L122.427674,106.977461 L106.978275,106.977461 L106.978581,30.7552001 L30.7561167,30.7552001 L30.756,106.977 L106.97797,106.97797 L106.97797,121.87946 L122.427368,121.87946 L122.427368,137.73317 L15.3723043,137.73317 L15.3723043,121.87946 L30.7555056,121.87946 L30.755,106.978 L15.3719988,106.978377 L15.3719988,121.878849 L0,121.878849 L0,14.8237844 L15.3719988,14.8237844 L15.3718969,5.68434189e-14 L122.426961,5.68434189e-14 Z M30.7561167,14.82409 L15.3718969,14.82409 L15.3719988,30.755913 L30.7562185,30.755913 L30.7561167,14.82409 Z" id="Combined-Shape" fill="#BAEAF5"></path>
        <polygon id="Fill-4" fill="#5DCFE7" points="15.3719988 30.7554038 30.7552001 30.7554038 30.7552001 14.8242936 15.3719988 14.8242936"></polygon>
        <polygon id="Fill-5" fill="#5DCFE7" points="15.3719988 121.879358 30.7552001 121.879358 30.7552001 106.977868 15.3719988 106.977868"></polygon>
        <polygon id="Fill-7" fill="#5DCFE7" points="106.977664 30.7554038 122.427063 30.7554038 122.427063 14.8242936 106.977664 14.8242936"></polygon>
        <polygon id="Fill-8" fill="#5DCFE7" points="106.977664 121.879358 122.427063 121.879358 122.427063 106.977868 106.977664 106.977868"></polygon>
        <path d="M307.444863,0.00132394318 C299.079579,0.00132394318 292.297935,6.78194987 292.297935,15.1482524 L292.297935,68.3626209 C292.297935,76.7268866 299.079579,83.5075125 307.444863,83.5075125 C315.810148,83.5075125 322.591792,76.7268866 322.591792,68.3626209 L322.591792,15.1482524 C322.591792,6.78194987 315.810148,0.00132394318 307.444863,0.00132394318" id="Fill-9" fill="#C4C7DB"></path>
        <path d="M179.742804,118.795894 C179.742804,133.953007 207.026217,140.963795 225.025734,140.963795 C253.635128,140.963795 276.560732,126.944255 276.560732,95.8702902 C276.560732,70.291708 260.456491,61.7665323 243.782954,56.2721681 C222.562181,49.2613797 214.984134,48.3142512 214.984134,40.5457599 C214.984134,33.913823 220.667924,29.5570315 229.003674,29.5570315 C242.077104,29.5570315 245.297341,34.6715259 255.151552,34.6715259 C263.297876,34.6715259 268.79224,28.6099029 268.79224,20.2721162 C268.79224,8.52568488 255.151552,-0.000509208916 230.520098,-0.000509208916 C204.941516,-0.000509208916 182.016931,13.8306234 182.016931,43.1987384 C182.016931,67.6387295 198.500023,74.4600922 214.415857,79.5766233 C231.847097,85.2593948 243.593528,87.3451146 243.593528,97.5751217 C243.593528,104.20604 239.235718,110.270718 227.299861,110.270718 C211.573453,110.270718 201.721279,102.502227 194.142213,102.502227 C184.857298,102.502227 179.742804,110.460144 179.742804,118.795894 L179.742804,118.795894 Z M339.512193,118.795894 C339.512193,133.953007 366.795607,140.963795 384.795124,140.963795 C413.405536,140.963795 436.330121,126.944255 436.330121,95.8702902 C436.330121,70.291708 420.22588,61.7665323 403.553362,56.2721681 C382.331571,49.2613797 374.753524,48.3142512 374.753524,40.5457599 C374.753524,33.913823 380.438332,29.5570315 388.774082,29.5570315 C401.846493,29.5570315 405.067749,34.6715259 414.919923,34.6715259 C423.067266,34.6715259 428.56163,28.6099029 428.56163,20.2721162 C428.56163,8.52568488 414.919923,-0.000509208916 390.290506,-0.000509208916 C364.711924,-0.000509208916 341.78632,13.8306234 341.78632,43.1987384 C341.78632,67.6387295 358.269413,74.4600922 374.184228,79.5766233 C391.616486,85.2593948 403.362918,87.3451146 403.362918,97.5751217 C403.362918,104.20604 399.005108,110.270718 387.069251,110.270718 C371.342842,110.270718 361.490668,102.502227 353.912621,102.502227 C344.627706,102.502227 339.512193,110.460144 339.512193,118.795894 L339.512193,118.795894 Z M473.653098,122.773834 C473.653098,133.575174 480.094591,139.069538 488.999636,139.069538 C497.9057,139.069538 504.347193,133.575174 504.347193,122.773834 L504.347193,31.4502703 L521.587988,31.4502703 C531.819014,31.4502703 537.503822,25.7664804 537.503822,17.2413047 C537.503822,8.33524075 531.819014,3.03132068 521.587988,3.03132068 L456.410266,3.03132068 C446.180258,3.03132068 440.496469,8.33524075 440.496469,17.2413047 C440.496469,25.7664804 446.180258,31.4502703 456.410266,31.4502703 L473.653098,31.4502703 L473.653098,122.773834 Z M549.198314,122.586445 C549.198314,132.438619 556.586936,137.932984 564.544853,137.932984 L612.669169,137.932984 C622.330899,137.932984 628.015707,132.248175 628.015707,123.723 C628.015707,114.817954 622.330899,109.510979 612.669169,109.510979 L579.891391,109.510979 L579.891391,84.3122663 L608.880654,84.3122663 C618.543403,84.3122663 624.227193,78.8179021 624.227193,70.1022822 C624.227193,61.3866624 618.543403,55.8922982 608.880654,55.8922982 L579.891391,55.8922982 L579.891391,31.4502703 L611.531596,31.4502703 C621.194344,31.4502703 626.879153,26.1463502 626.879153,17.2413047 C626.879153,8.7151106 621.194344,3.03132068 611.531596,3.03132068 L564.544853,3.03132068 C556.586936,3.03132068 549.198314,8.52568488 549.198314,18.377859 L549.198314,122.586445 Z M646.723024,90.5663702 C644.259471,104.58591 641.605475,119.932448 641.605475,124.480702 C641.605475,131.301047 646.91245,139.069538 656.005903,139.069538 C669.838054,139.069538 672.29957,129.217364 673.815994,118.795894 L682.910465,58.9231097 L683.290335,58.9231097 L703.941812,125.237387 C706.972623,135.089561 711.519859,139.069538 720.802737,139.069538 C730.087653,139.069538 734.634888,135.089561 737.666718,125.237387 L758.318195,58.9231097 L758.697046,58.9231097 L767.792536,118.795894 C769.306923,129.217364 771.770476,139.069538 785.602627,139.069538 C794.69608,139.069538 800,131.301047 800,124.480702 C800,119.932448 797.349058,104.58591 794.885506,90.5663702 L782.759205,21.2212816 C779.917819,5.11500356 770.256089,1.89374796 762.487598,1.89374796 C747.141059,1.89374796 743.730378,10.7987935 735.961887,35.0513957 L720.993181,81.4708805 L720.615348,81.4708805 L705.645625,35.0513957 C697.878152,10.7987935 694.467471,1.89374796 679.120932,1.89374796 C671.352441,1.89374796 661.689693,5.11500356 658.848307,21.2212816 L646.723024,90.5663702 Z" id="Fill-11" fill="#181C3F"></path>
        <path d="M307.44466,30.7561167 C315.937246,30.7561167 322.822769,23.8705937 322.822769,15.3780074 C322.822769,6.88542112 315.937246,0.000916576049 307.44466,0.000916576049 C298.952074,0.000916576049 292.066551,6.88542112 292.066551,15.3780074 C292.066551,23.8705937 298.952074,30.7561167 307.44466,30.7561167" id="Fill-14" fill="#181C3F"></path>
        <path d="M15.3777019,30.7555056 C23.8702882,30.7555056 30.7558112,23.8699827 30.7558112,15.3773964 C30.7558112,6.88481007 23.8702882,0.00030552535 15.3777019,0.00030552535 C6.88511559,0.00030552535 -0.000407367133,6.88481007 -0.000407367133,15.3773964 C-0.000407367133,23.8699827 6.88511559,30.7555056 15.3777019,30.7555056" id="Fill-16" fill="#18BADC"></path>
        <path d="M106.978581,15.3779056 C106.978581,23.8704919 113.864104,30.7560148 122.35669,30.7560148 C130.849276,30.7560148 137.733781,23.8704919 137.733781,15.3779056 C137.733781,6.88531928 130.849276,-0.000203683566 122.35669,-0.000203683566 C113.864104,-0.000203683566 106.978581,6.88531928 106.978581,15.3779056" id="Fill-19" fill="#18BADC"></path>
        <path d="M106.978581,122.356079 C106.978581,130.848665 113.864104,137.734188 122.35669,137.734188 C130.849276,137.734188 137.733781,130.848665 137.733781,122.356079 C137.733781,113.863493 130.849276,106.97797 122.35669,106.97797 C113.864104,106.97797 106.978581,113.863493 106.978581,122.356079" id="Fill-22" fill="#18BADC"></path>
        <path d="M106.978581,68.8669414 C106.978581,77.3595277 113.864104,84.2450507 122.35669,84.2450507 C130.849276,84.2450507 137.733781,77.3595277 137.733781,68.8669414 C137.733781,60.3743551 130.849276,53.4888322 122.35669,53.4888322 C113.864104,53.4888322 106.978581,60.3743551 106.978581,68.8669414" id="Fill-24" fill="#18BADC"></path>
        <path d="M15.3777019,137.733577 C23.8702882,137.733577 30.7558112,130.848054 30.7558112,122.355468 C30.7558112,113.862882 23.8702882,106.978377 15.3777019,106.978377 C6.88511559,106.978377 -0.000407367133,113.862882 -0.000407367133,122.355468 C-0.000407367133,130.848054 6.88511559,137.733577 15.3777019,137.733577" id="Fill-26" fill="#18BADC"></path>
        <path d="M15.3777019,84.2444396 C23.8702882,84.2444396 30.7558112,77.3589167 30.7558112,68.8663304 C30.7558112,60.3737441 23.8702882,53.4892395 15.3777019,53.4892395 C6.88511559,53.4892395 -0.000407367133,60.3737441 -0.000407367133,68.8663304 C-0.000407367133,77.3589167 6.88511559,84.2444396 15.3777019,84.2444396" id="Fill-29" fill="#18BADC"></path>
        <path d="M53.4893414,15.3779056 C53.4893414,23.8704919 60.3748643,30.7560148 68.8674506,30.7560148 C77.3600369,30.7560148 84.2445415,23.8704919 84.2445415,15.3779056 C84.2445415,6.88531928 77.3600369,-0.000203683566 68.8674506,-0.000203683566 C60.3748643,-0.000203683566 53.4893414,6.88531928 53.4893414,15.3779056" id="Fill-32" fill="#18BADC"></path>
        <path d="M53.4893414,122.356079 C53.4893414,130.848665 60.3748643,137.734188 68.8674506,137.734188 C77.3600369,137.734188 84.2445415,130.848665 84.2445415,122.356079 C84.2445415,113.863493 77.3600369,106.97797 68.8674506,106.97797 C60.3748643,106.97797 53.4893414,113.863493 53.4893414,122.356079" id="Fill-35" fill="#18BADC"></path>
        <path d="M307.444863,54.2266759 C299.079579,54.2266759 292.297935,61.0073018 292.297935,69.3736043 L292.297935,122.587973 C292.297935,130.952238 299.079579,137.732864 307.444863,137.732864 C315.810148,137.732864 322.591792,130.952238 322.591792,122.587973 L322.591792,69.3736043 C322.591792,61.0073018 315.810148,54.2266759 307.444863,54.2266759" id="Fill-37" fill="#181C3F"></path>
        <path d="M203.970862,180.012175 L203.970862,228.276015 L209.858336,228.276015 L209.858336,180.012175 L226.20496,180.012175 L226.20496,174.6665 L187.469438,174.6665 L187.469438,180.012175 L203.970862,180.012175 Z M283.286261,228.276015 L283.286261,223.007739 L256.637322,223.007739 L256.637322,203.640487 L278.638202,203.640487 L278.638202,198.449612 L256.637322,198.449612 L256.637322,179.934775 L283.286261,179.934775 L283.286261,174.6665 L250.67143,174.6665 L250.67143,228.276015 L283.286261,228.276015 Z M342.938049,222.311141 C337.980391,223.239938 333.680631,223.705355 330.039787,223.705355 C326.398943,223.705355 323.634957,223.278638 321.749866,222.427241 C319.865793,221.574825 318.432879,220.155151 317.451124,218.166181 C316.468351,216.179248 315.810453,213.943821 315.475394,211.464992 C315.140334,208.986163 314.971277,205.706857 314.971277,201.626057 C314.971277,193.466493 315.887853,187.695119 317.722023,184.311935 C319.556194,180.92977 323.313137,179.237159 328.993872,179.237159 C333.074672,179.237159 337.722731,179.702576 342.938049,180.632392 L343.170248,175.596315 C337.593392,174.461798 332.737576,173.892502 328.606873,173.892502 C324.475152,173.892502 321.117428,174.461798 318.535739,175.596315 C315.95405,176.73287 313.950822,178.540561 312.531148,181.01939 C311.111473,183.498219 310.129718,186.352845 309.58792,189.580211 C309.045103,192.808595 308.774204,196.797738 308.774204,201.548657 C308.774204,206.301613 309.045103,210.264277 309.58792,213.440722 C310.129718,216.616149 311.111473,219.433093 312.531148,221.884424 C313.950822,224.338811 315.965253,226.145485 318.574439,227.307499 C321.182607,228.469514 324.603473,229.051031 328.839072,229.051031 C333.074672,229.051031 337.850033,228.508214 343.170248,227.423599 L342.938049,222.311141 Z M407.913107,228.276015 L407.913107,174.6665 L402.024615,174.6665 L402.024615,198.682829 L374.755459,198.682829 L374.755459,174.6665 L368.790586,174.6665 L368.790586,228.276015 L374.755459,228.276015 L374.755459,204.027486 L402.024615,204.027486 L402.024615,228.276015 L407.913107,228.276015 Z M443.92538,228.276015 L443.92538,179.934775 L445.396993,179.934775 L466.235859,228.276015 L477.159409,228.276015 L477.159409,174.6665 L471.271935,174.6665 L471.271935,223.007739 L469.644503,223.007739 L449.115237,174.6665 L437.959488,174.6665 L437.959488,228.276015 L443.92538,228.276015 Z M514.29296,184.544135 C516.38479,180.95523 520.335233,179.159759 526.145306,179.159759 C531.956398,179.159759 535.920081,180.96847 538.037371,184.582834 C540.154662,188.199236 541.213817,193.956352 541.213817,201.858256 C541.213817,209.76016 540.193362,215.390992 538.153471,218.746679 C536.114598,222.105421 532.136658,223.782755 526.223725,223.782755 C520.310791,223.782755 516.32063,222.066721 514.25426,218.630579 C512.18789,215.197493 511.155214,209.555458 511.155214,201.703457 C511.155214,193.85451 512.201129,188.135076 514.29296,184.544135 L514.29296,184.544135 Z M542.72413,180.709791 C539.600643,176.165611 534.086929,173.892502 526.185025,173.892502 C518.283121,173.892502 512.782646,176.177832 509.6836,180.748491 C506.584555,185.319151 505.035542,192.318736 505.035542,201.742156 C505.035542,211.168632 506.559095,218.07656 509.606201,222.465941 C512.652288,226.85634 518.191463,229.051031 526.223725,229.051031 C534.254968,229.051031 539.794142,226.90828 542.84023,222.62074 C545.887336,218.33422 547.410889,211.414071 547.410889,201.858256 C547.410889,192.304478 545.848636,185.25499 542.72413,180.709791 L542.72413,180.709791 Z M604.727445,222.930339 L581.176532,222.930339 L581.176532,174.6665 L575.211659,174.6665 L575.211659,228.276015 L604.727445,228.276015 L604.727445,222.930339 Z M635.754562,184.544135 C637.845374,180.95523 641.796835,179.159759 647.606909,179.159759 C653.416983,179.159759 657.379647,180.96847 659.498974,184.582834 C661.615246,188.199236 662.675419,193.956352 662.675419,201.858256 C662.675419,209.76016 661.653946,215.390992 659.615074,218.746679 C657.573146,222.105421 653.597243,223.782755 647.684309,223.782755 C641.769338,223.782755 637.780195,222.066721 635.715862,218.630579 C633.648474,215.197493 632.616817,209.555458 632.616817,201.703457 C632.616817,193.85451 633.662732,188.135076 635.754562,184.544135 L635.754562,184.544135 Z M664.185733,180.709791 C661.060209,176.165611 655.547513,173.892502 647.645609,173.892502 C639.743705,173.892502 634.24323,176.177832 631.145203,180.748491 C628.046158,185.319151 626.496126,192.318736 626.496126,201.742156 C626.496126,211.168632 628.01866,218.07656 631.066785,222.465941 C634.113891,226.85634 639.653066,229.051031 647.684309,229.051031 C655.714533,229.051031 661.253708,226.90828 664.301833,222.62074 C667.34792,218.33422 668.872492,211.414071 668.872492,201.858256 C668.872492,192.304478 667.30922,185.25499 664.185733,180.709791 L664.185733,180.709791 Z M725.787791,206.196716 L725.787791,222.69814 C722.017608,223.422235 718.325843,223.782755 714.71046,223.782755 C708.821968,223.782755 704.846065,222.066721 702.779695,218.630579 C700.713325,215.197493 699.68065,209.489261 699.68065,201.509957 C699.68065,193.530653 700.713325,187.825477 702.779695,184.389335 C704.846065,180.95523 708.849465,179.237159 714.78786,179.237159 C719.487858,179.237159 725.038235,179.779976 731.443065,180.864591 L731.676283,175.905914 L729.041636,175.441516 C723.87622,174.40884 718.893102,173.892502 714.090244,173.892502 C706.395078,173.892502 701.036164,176.152372 698.015536,180.671092 C694.993891,185.19083 693.483577,192.136439 693.483577,201.509957 C693.483577,210.883475 694.993891,217.817882 698.015536,222.311141 C701.036164,226.804401 706.445999,229.051031 714.245043,229.051031 C719.358519,229.051031 725.168593,228.430814 731.676283,227.1914 L731.676283,200.851041 L716.87969,200.851041 L716.87969,206.196716 L725.787791,206.196716 Z M776.209658,205.732318 L793.25288,174.6665 L786.512991,174.6665 L773.188012,199.767444 L759.863033,174.6665 L753.124162,174.6665 L770.244784,205.732318 L770.244784,228.276015 L776.209658,228.276015 L776.209658,205.732318 Z" id="Fill-39" fill="#18BADC"></path>
    </g>
</svg>