<?xml version="1.0" encoding="UTF-8"?>
<svg id="a" xmlns="http://www.w3.org/2000/svg" viewBox="0 0 917.69 240.3">
  <defs>
    <style>
      .cls-1 {
        fill: #003f30;
      }
    </style>
  </defs>
  <path class="cls-1" d="M433.19,197.4c-12.3,0-23-2-32.1-5.8s-16.4-9.1-21.8-15.8c-5.4-6.6-9.2-14.1-11.3-22.5l27.1-10c1.4,5.5,3.7,10.6,6.8,15.2,3.1,4.6,7.3,8.3,12.7,11.2s11.7,4.4,19.1,4.4,17.3-1.9,22.4-5.7c5-3.8,7.5-8.8,7.5-15s-2-9.5-5.9-12.7-10.3-5.6-19.1-7.2l-18.9-3.2c-9.3-1.5-17.2-4.1-23.8-7.5-6.5-3.5-11.6-8.2-15.2-14.1s-5.4-13.2-5.4-21.8,2.2-15.4,6.7-22.2c4.5-6.7,11-12.1,19.5-16,8.5-4,18.6-5.9,30.2-5.9s21.3,1.8,29.6,5.3c8.3,3.5,14.8,8.2,19.7,14,4.9,5.8,8.4,12,10.5,18.7l-26.5,10c-1.4-4.5-3.5-8.6-6.4-12.3-2.8-3.7-6.5-6.6-11-8.9s-10-3.4-16.5-3.4-10.9.9-14.8,2.6c-4,1.8-6.9,4.1-8.7,7.1-1.8,3-2.8,6.2-2.8,9.8s1.7,8.7,5.2,11.7,8.6,5,15.4,6.1l19.1,3.2c15.1,2.5,27,7.5,35.7,14.9s13,17.4,13,30-2.2,16.6-6.6,23.5-11.1,12.4-20,16.4-20.1,6-33.4,6h0v-.1Z"/>
  <path class="cls-1" d="M576.09,197.4c-13,0-24.3-2.4-33.8-7.1s-16.9-11.7-22-20.9-7.7-20.1-7.7-32.9V45.8h28.4v86.3c0,13,3,23,8.9,30s14.7,10.5,26.3,10.5,20.7-3.6,26.5-10.7c5.8-7.1,8.7-17.1,8.7-29.8V45.8h28.4v90.8c0,12.7-2.6,23.6-7.8,32.8s-12.7,16.1-22.3,20.9c-9.6,4.8-20.8,7.2-33.5,7.2h0l-.1-.1Z"/>
  <path class="cls-1" d="M721.09,197.4c-12.3,0-23-2-32.1-5.8s-16.4-9.1-21.8-15.8c-5.4-6.6-9.2-14.1-11.3-22.5l27.1-10c1.4,5.5,3.7,10.6,6.8,15.2,3.1,4.6,7.3,8.3,12.7,11.2s11.7,4.4,19.1,4.4,17.3-1.9,22.4-5.7c5-3.8,7.5-8.8,7.5-15s-2-9.5-5.9-12.7-10.3-5.6-19.1-7.2l-18.9-3.2c-9.3-1.5-17.2-4.1-23.8-7.5-6.5-3.5-11.6-8.2-15.2-14.1s-5.4-13.2-5.4-21.8,2.2-15.4,6.7-22.2c4.5-6.7,11-12.1,19.5-16,8.5-4,18.6-5.9,30.2-5.9s21.3,1.8,29.6,5.3,14.8,8.2,19.7,14,8.4,12,10.5,18.7l-26.5,10c-1.4-4.5-3.5-8.6-6.4-12.3-2.8-3.7-6.5-6.6-11-8.9s-10-3.4-16.5-3.4-10.9.9-14.8,2.6c-4,1.8-6.9,4.1-8.7,7.1s-2.8,6.2-2.8,9.8,1.7,8.7,5.2,11.7,8.6,5,15.4,6.1l19.1,3.2c15.1,2.5,27,7.5,35.7,14.9s13,17.4,13,30-2.2,16.6-6.6,23.5-11.1,12.4-20,16.4-20.1,6-33.4,6h0v-.1Z"/>
  <path class="cls-1" d="M857.69,197.4c-12.3,0-23-2-32.1-5.8s-16.4-9.1-21.8-15.8c-5.4-6.6-9.2-14.1-11.3-22.5l27.1-10c1.4,5.5,3.7,10.6,6.8,15.2,3.1,4.6,7.3,8.3,12.7,11.2s11.7,4.4,19.1,4.4,17.3-1.9,22.4-5.7c5-3.8,7.5-8.8,7.5-15s-2-9.5-5.9-12.7-10.3-5.6-19.1-7.2l-18.9-3.2c-9.3-1.5-17.2-4.1-23.8-7.5-6.5-3.5-11.6-8.2-15.2-14.1s-5.4-13.2-5.4-21.8,2.2-15.4,6.7-22.2c4.5-6.7,11-12.1,19.5-16,8.5-4,18.6-5.9,30.2-5.9s21.3,1.8,29.6,5.3,14.8,8.2,19.7,14,8.4,12,10.5,18.7l-26.5,10c-1.4-4.5-3.5-8.6-6.4-12.3-2.8-3.7-6.5-6.6-11-8.9s-10-3.4-16.5-3.4-10.9.9-14.8,2.6c-4,1.8-6.9,4.1-8.7,7.1s-2.8,6.2-2.8,9.8,1.7,8.7,5.2,11.7,8.6,5,15.4,6.1l19.1,3.2c15.1,2.5,27,7.5,35.7,14.9s13,17.4,13,30-2.2,16.6-6.6,23.5-11.1,12.4-20,16.4c-9,4-20.1,6-33.4,6h0v-.1Z"/>
  <path class="cls-1" d="M151.09,107.5c-4.5,0-8.6-2.4-10.8-6.2l-30.3-52.5c-3.4-6-1.4-13.6,4.6-17.1,6-3.4,13.6-1.4,17.1,4.6l23.1,40c2.2,3.9,6.4,6.2,10.8,6.2h69.4c9.6,0,15.6-10.4,10.8-18.8L212.59,6.2c-2.2-3.9-6.4-6.2-10.8-6.2h-127.1c-4.5,0-8.6,2.4-10.8,6.2L1.69,113.8c-4.8,8.3,1.2,18.8,10.8,18.8h109.7c4.5,0,8.6,2.4,10.8,6.3l30.3,52.5c3.5,6,1.4,13.6-4.6,17.1-2,1.1-4.1,1.7-6.2,1.7-4.3,0-8.5-2.2-10.8-6.2l-23.1-40c-2.2-3.9-6.4-6.2-10.8-6.2H38.39c-9.6,0-15.6,10.4-10.8,18.8l33.2,57.5c2.2,3.9,6.4,6.2,10.8,6.2h127.1c4.5,0,8.6-2.4,10.8-6.2l62.1-107.5c4.8-8.3-1.2-18.8-10.8-18.8h-109.7v-.3Z"/>
</svg>